<?xml version="1.0" encoding="iso-8859-1"?>
<!-- Generator: Adobe Illustrator 16.0.0, SVG Export Plug-In . SVG Version: 6.00 Build 0)  -->
<!DOCTYPE svg PUBLIC "-//W3C//DTD SVG 1.1//EN" "http://www.w3.org/Graphics/SVG/1.1/DTD/svg11.dtd">
<svg version="1.1" id="Capa_1" xmlns="http://www.w3.org/2000/svg" xmlns:xlink="http://www.w3.org/1999/xlink" x="0px" y="0px"
	 width="27.692px" height="51.787px" viewBox="0 0 27.692 51.787" style="enable-background:new 0 0 27.692 51.787;"
	 xml:space="preserve">
<g>
	<path d="M13.845,0C6.199,0,0,6.198,0,13.845c0,1.494,0.244,2.929,0.68,4.274c0.981,3.461,12.292,33.668,12.292,33.668
		s12.014-27.703,13.83-33.096c0.565-1.511,0.891-3.14,0.891-4.848C27.691,6.199,21.492,0,13.845,0z M13.845,24.761
		c-6,0-10.865-4.867-10.865-10.865c0-6.003,4.865-10.868,10.865-10.868c6.003,0,10.866,4.865,10.866,10.868
		C24.711,19.894,19.848,24.761,13.845,24.761z" fill = "red"/>
	<path d="M18.464,6.326H9.227c-0.948,0-1.72,0.835-1.72,1.866v10.039c0,0.685,0.341,1.28,0.848,1.604v1.073
		c0,0.353,0.567,0.636,1.271,0.636c0.701,0,1.271-0.283,1.271-0.636v-0.812h1.556v-0.001h3.217v0.001h1.195v0.812
		c0,0.353,0.568,0.636,1.271,0.636s1.271-0.283,1.271-0.636v-1.116c0.471-0.334,0.78-0.907,0.78-1.562V8.191
		C20.185,7.162,19.414,6.326,18.464,6.326z M11.173,7.121h5.344V7.64h-5.344V7.121z M12.244,17.061H8.871v-1.248h3.373V17.061z
		 M15.668,19.941h-3.217v-0.99h3.217V19.941z M18.99,17.061h-3.374v-1.248h3.374V17.061z M19.138,12.773
		c0,0.127-0.224,0.23-0.5,0.23H9.053c-0.275,0-0.499-0.104-0.499-0.23V8.339c0-0.128,0.224-0.232,0.499-0.232h9.585
		c0.276,0,0.5,0.104,0.5,0.232V12.773z" stroke = "red"/>
</g>
<g>
</g>
<g>
</g>
<g>
</g>
<g>
</g>
<g>
</g>
<g>
</g>
<g>
</g>
<g>
</g>
<g>
</g>
<g>
</g>
<g>
</g>
<g>
</g>
<g>
</g>
<g>
</g>
<g>
</g>
</svg>
