<?xml version="1.0" encoding="iso-8859-1"?>
<!-- Generator: Adobe Illustrator 16.0.0, SVG Export Plug-In . SVG Version: 6.00 Build 0)  -->
<!DOCTYPE svg PUBLIC "-//W3C//DTD SVG 1.1//EN" "http://www.w3.org/Graphics/SVG/1.1/DTD/svg11.dtd">
<svg version="1.1" id="Layer_1" xmlns="http://www.w3.org/2000/svg" xmlns:xlink="http://www.w3.org/1999/xlink" x="0px" y="0px"
	 width="512px" height="512px" viewBox="0 0 512 512" style="enable-background:new 0 0 512 512;" xml:space="preserve">
<path d="M485.822,231.381h-34.521l-26.58-172.119H87.277L60.699,231.381H26.178v161.113h29.615v60.244h80.557v-60.244H375.65v60.244
	h80.557v-60.244h29.615V231.381z M122.488,97.178H389.51l15.604,101.041H106.887L122.488,97.178z M108.51,344.635
	c-18.973,0-34.354-15.382-34.354-34.354c0-18.974,15.381-34.354,34.354-34.354c18.975,0,34.355,15.381,34.355,34.354
	C142.865,329.253,127.484,344.635,108.51,344.635z M403.49,275.926c18.973,0,34.354,15.381,34.354,34.354
	c0,18.973-15.381,34.354-34.354,34.354c-18.975,0-34.355-15.382-34.355-34.354C369.135,291.307,384.516,275.926,403.49,275.926z"/>
</svg>
