<?xml version="1.0" encoding="UTF-8" standalone="no"?>
<!-- Generator: Adobe Illustrator 16.0.0, SVG Export Plug-In . SVG Version: 6.00 Build 0)  -->

<svg
   xmlns:dc="http://purl.org/dc/elements/1.1/"
   xmlns:cc="http://creativecommons.org/ns#"
   xmlns:rdf="http://www.w3.org/1999/02/22-rdf-syntax-ns#"
   xmlns:svg="http://www.w3.org/2000/svg"
   xmlns="http://www.w3.org/2000/svg"
   xmlns:sodipodi="http://sodipodi.sourceforge.net/DTD/sodipodi-0.dtd"
   xmlns:inkscape="http://www.inkscape.org/namespaces/inkscape"
   version="1.1"
   id="Layer_1"
   x="0px"
   y="0px"
   width="72px"
   height="72px"
   viewBox="0 0 72 72"
   enable-background="new 0 0 72 72"
   xml:space="preserve"
   inkscape:version="0.48.5 r10040"
   sodipodi:docname="food_inspection.svg"><metadata
   id="metadata3791"><rdf:RDF><cc:Work
       rdf:about=""><dc:format>image/svg+xml</dc:format><dc:type
         rdf:resource="http://purl.org/dc/dcmitype/StillImage" /><dc:title></dc:title></cc:Work></rdf:RDF></metadata><defs
   id="defs3789" /><sodipodi:namedview
   pagecolor="#ffffff"
   bordercolor="#666666"
   borderopacity="1"
   objecttolerance="10"
   gridtolerance="10"
   guidetolerance="10"
   inkscape:pageopacity="0"
   inkscape:pageshadow="2"
   inkscape:window-width="1366"
   inkscape:window-height="745"
   id="namedview3787"
   showgrid="false"
   inkscape:zoom="5.4800776"
   inkscape:cx="43.059461"
   inkscape:cy="30.979091"
   inkscape:window-x="-8"
   inkscape:window-y="424"
   inkscape:window-maximized="1"
   inkscape:current-layer="Layer_1" />
<g
   id="g3769">
	<g
   id="g3771">
		<path
   d="M28.131,52.964c-13.509,0-24.5-10.99-24.5-24.499c0-13.51,10.991-24.5,24.5-24.5c13.51,0,24.5,10.99,24.5,24.5    C52.632,41.974,41.642,52.964,28.131,52.964z M28.131,7.965c-11.304,0-20.5,9.196-20.5,20.5s9.196,20.499,20.5,20.499    c11.303,0,20.5-9.195,20.5-20.499S39.435,7.965,28.131,7.965z"
   id="path3773" />
	</g>
	<g
   id="g3775">
		
	</g>
	<g
   id="g3779">
		
	</g>
	<g
   id="g3783">
		<path
   d="M62.37,68.035c-1.604,0-3.109-0.623-4.244-1.756L41.985,50.136c-1.252-1.252-1.664-2.799-1.162-4.357    c0.41-1.268,1.371-2.338,2.162-3.127c1.172-1.172,2.613-2.371,4.422-2.371c0.771,0,1.93,0.238,3.063,1.371l16.143,16.141    c1.133,1.135,1.756,2.641,1.756,4.244c0,1.602-0.623,3.109-1.756,4.242C65.478,67.412,63.972,68.035,62.37,68.035z M44.614,47.076    c0.006,0,0.059,0.094,0.199,0.232l16.141,16.143c0.756,0.754,2.074,0.754,2.83,0c0.377-0.379,0.584-0.881,0.584-1.414    c0-0.535-0.207-1.037-0.586-1.416L47.642,44.48c-0.143-0.143-0.236-0.195-0.262-0.203c-0.014,0.008-0.426,0.061-1.566,1.203    C44.671,46.621,44.616,47.033,44.614,47.076L44.614,47.076z"
   id="path3785" />
	</g>
</g>
<g
   id="g5211"
   transform="matrix(0.68912589,0,0,0.68912589,11.650185,10.355584)">
	<path
   id="path5213"
   d="m 20.614,17.147 c 0.003,0 0.009,-0.057 0.009,-0.092 0,-1.354 -2.355,-2.516 -5.725,-3.031 v 1.807 c 0,2.168 -1.749,3.93 -3.915,3.93 -2.167,0 -3.915,-1.762 -3.915,-3.93 v -1.807 c -3.369,0.515 -5.748,1.675 -5.748,3.027 0,0.036 -0.017,0.096 -0.013,0.096 H 1.303 l 3.192,27.944 c 0.095,0.835 0.803,1.486 1.645,1.486 h 9.643 c 0.842,0 1.55,-0.651 1.645,-1.486 L 20.62,17.147 h -0.006 z m -3.501,12.63 -0.569,4.548 c -0.104,0.829 -0.808,1.451 -1.643,1.451 H 7.02 c -0.834,0 -1.539,-0.628 -1.643,-1.456 L 4.809,29.77 C 4.75,29.3 4.896,28.845 5.211,28.489 c 0.314,-0.357 0.766,-0.54 1.241,-0.54 h 9.018 c 0.475,0 0.927,0.182 1.241,0.538 0.314,0.356 0.46,0.82 0.402,1.29 z"
   inkscape:connector-curvature="0" />
	<path
   id="path5215"
   d="m 10.934,17.796 c 1.085,0 1.982,-0.88 1.982,-1.965 v -8.16 c 0,-0.583 0.42,-1.081 0.994,-1.186 l 6.576,-1.201 c 1.067,-0.196 1.775,-1.22 1.58,-2.287 -0.174,-0.95 -1.005,-1.61 -1.938,-1.61 -0.114,0 -0.23,0.011 -0.347,0.03 L 13.185,2.619 C 10.745,3.066 8.953,5.19 8.953,7.671 v 8.16 c 0,1.085 0.897,1.965 1.981,1.965 z"
   inkscape:connector-curvature="0" />
	<path
   id="path5217"
   d="m 23.222,35.776 h 20.553 c 0.25,0 0.487,-0.228 0.644,-0.422 0.157,-0.194 0.217,-0.507 0.165,-0.752 -1.102,-5.119 -5.642,-8.986 -11.085,-8.986 -5.442,0 -9.982,3.825 -11.084,8.945 -0.053,0.243 0.008,0.605 0.165,0.801 0.156,0.195 0.392,0.414 0.642,0.414 z m 16.953,-6.101 c 0.445,0 0.807,0.362 0.807,0.808 0,0.447 -0.362,0.81 -0.807,0.81 -0.446,0 -0.807,-0.362 -0.807,-0.81 10e-4,-0.446 0.361,-0.808 0.807,-0.808 z M 35.7,31.658 c 0,0.445 -0.362,0.807 -0.808,0.807 -0.446,0 -0.807,-0.361 -0.807,-0.807 0,-0.447 0.361,-0.809 0.807,-0.809 0.446,0 0.808,0.362 0.808,0.809 z m -1.394,-4.917 c 0.446,0 0.806,0.362 0.806,0.808 0,0.446 -0.36,0.807 -0.806,0.807 -0.446,0 -0.808,-0.361 -0.808,-0.807 0,-0.446 0.361,-0.808 0.808,-0.808 z m -4.697,1.174 c 0.446,0 0.807,0.362 0.807,0.808 0,0.446 -0.361,0.807 -0.807,0.807 -0.445,0 -0.807,-0.361 -0.807,-0.807 0,-0.446 0.362,-0.808 0.807,-0.808 z m -2.347,3.522 c 0.446,0 0.807,0.36 0.807,0.808 0,0.448 -0.361,0.808 -0.807,0.808 -0.446,0 -0.808,-0.36 -0.808,-0.808 0,-0.448 0.361,-0.808 0.808,-0.808 z"
   inkscape:connector-curvature="0" />
	<path
   id="path5219"
   d="M 43.895,41.129 H 23.102 c -0.243,0 -0.473,0.141 -0.63,0.326 -0.156,0.186 -0.224,0.447 -0.185,0.688 0.806,4.956 5.512,4.398 11.212,4.398 5.7,0 10.405,0.571 11.212,-4.388 0.039,-0.238 -0.029,-0.514 -0.186,-0.698 -0.157,-0.186 -0.388,-0.326 -0.63,-0.326 z"
   inkscape:connector-curvature="0" />
	<path
   id="path5221"
   d="m 45.418,36.668 h -23.84 c -0.873,0 -1.626,0.706 -1.626,1.58 v 0.36 c 0,0.873 0.754,1.529 1.626,1.529 h 0.287 23.266 0.287 c 0.874,0 1.587,-0.656 1.587,-1.529 v -0.36 c 0,-0.874 -0.713,-1.58 -1.587,-1.58 z"
   inkscape:connector-curvature="0" />
</g></svg>