<?xml version="1.0" encoding="utf-8"?>
<!-- Generator: Adobe Illustrator 16.0.0, SVG Export Plug-In . SVG Version: 6.00 Build 0)  -->
<!DOCTYPE svg PUBLIC "-//W3C//DTD SVG 1.1//EN" "http://www.w3.org/Graphics/SVG/1.1/DTD/svg11.dtd">
<svg version="1.1" id="Layer_1" xmlns="http://www.w3.org/2000/svg" xmlns:xlink="http://www.w3.org/1999/xlink" x="0px" y="0px"
	 width="126px" height="126px" viewBox="0 0 126 126" enable-background="new 0 0 126 126" xml:space="preserve">
<path d="M110.023,60.983c-2.929-3.365-6.597-5.24-10.457-5.777c-1.26-1.592-4.21-5.408-4.337-6.397
	c-0.162-1.257-0.739-1.921-3.391,0.388c-0.649,0.565-1.429,1.061-2.235,1.488l-3.229-3.709c0.427-0.993,0.531-2.085,0.253-3.147
	c-0.331-1.261-1.132-2.317-2.258-2.975l-4.475-2.614c-0.747-0.437-1.598-0.667-2.459-0.667c-1.729,0-3.344,0.927-4.215,2.418
	c-0.397,0.678-0.598,1.426-0.64,2.188h-2.23c-0.682-2.207-2.715-3.824-5.142-3.824c-2.892,0-5.24,2.288-5.378,5.146l-2.434,0.789
	c-0.264-1.017-0.451-2.083-0.451-3.079c0-3.517-0.877-3.516-1.932-2.812s-8.584,0.968-8.584,0.968l0.006,0.018
	c-3.279-2.59-7.407-4.15-11.901-4.15c-9.942,0-18.146,7.578-19.145,17.26c-0.036,0.048-0.067,0.092-0.104,0.142
	c-0.258,0.356-0.552,0.753-0.838,1.19c-0.243,0.433-0.507,0.901-0.787,1.401c-0.271,0.505-0.49,1.077-0.752,1.662
	c-0.248,0.591-0.427,1.245-0.649,1.91c-0.348,1.358-0.646,2.856-0.669,4.458c-0.078,1.599,0.143,3.283,0.522,4.966
	c0.396,1.688,1.095,3.346,1.966,4.921c0.906,1.563,2.071,2.982,3.364,4.249l1.013,0.843c0.283,0.254,0.687,0.529,1.079,0.794
	c0.774,0.569,1.564,0.967,2.343,1.38c1.603,0.741,3.251,1.297,4.895,1.557c1.64,0.245,3.244,0.338,4.742,0.152
	c1.121-0.093,2.173-0.322,3.147-0.599l-0.216,0.134l1.994,1.235l0.487-2.15l2.146,0.944l-0.068-2.143
	c0.193-0.142,0.38-0.281,0.558-0.414l1.694,0.862l0.087-2.583c0.249-0.317,0.435-0.611,0.583-0.814
	c0.218-0.331,0.322-0.513,0.322-0.513s-0.19,0.095-0.547,0.273c-0.36,0.166-0.811,0.493-1.46,0.782
	c-0.324,0.146-0.651,0.341-1.025,0.522c-0.389,0.156-0.79,0.349-1.223,0.54c-0.873,0.367-1.865,0.73-2.972,1.033
	c-1.119,0.25-2.343,0.463-3.646,0.449c-1.3,0.046-2.663-0.168-4.018-0.495c-1.359-0.342-2.68-0.939-3.933-1.656
	c-0.605-0.401-1.23-0.792-1.728-1.24c-0.479-0.33-1.192-1.104-1.627-1.521c-0.956-1.094-1.795-2.273-2.415-3.541
	c-0.585-1.28-1.039-2.591-1.246-3.906c-0.191-1.312-0.279-2.596-0.126-3.794c0.088-1.203,0.37-2.308,0.675-3.302
	c0.2-0.482,0.345-0.96,0.553-1.385c0.223-0.418,0.398-0.833,0.616-1.191c0.224-0.355,0.433-0.688,0.627-0.995
	c0.201-0.263,0.387-0.503,0.554-0.721c0.08-0.109,0.156-0.213,0.229-0.311c0.105-0.115,0.204-0.223,0.297-0.322
	c0.188-0.202,0.35-0.375,0.479-0.514c0.262-0.279,0.399-0.428,0.399-0.428l-0.14-0.128c0.138-7.586,6.343-13.717,13.961-13.717
	c7.706,0,13.976,6.27,13.976,13.975h2.969l0.019,0.054h7.735v-5.416c0,0-0.38-0.733-0.828-1.833l2.21-0.717
	c0.952,1.549,2.647,2.594,4.594,2.594c2.427,0,4.46-1.617,5.142-3.823h3.155c0.39,0.529,0.881,0.982,1.466,1.323l4.474,2.615
	c0.747,0.436,1.598,0.667,2.459,0.667c0.829,0,1.63-0.218,2.337-0.605l2.313,2.659c-1.259,0.445-2.182,0.667-2.182,0.667
	l-4.085,3.555l3.647,4.19c-0.143,0.16-0.267,0.328-0.404,0.49l-1.937-0.048l0.579,1.832c-0.069,0.102-0.143,0.203-0.211,0.305
	l-2.032,0.236l0.969,1.54c-0.164,0.308-0.31,0.622-0.456,0.935l-1.542,0.091l0.853,1.574c-2.316,6.402-1.085,13.417,4.384,18.568
	c7.183,6.764,17.549,6.134,24.903-0.094c-0.003-0.018-0.006-0.036-0.008-0.052C115.54,78.683,116.501,68.422,110.023,60.983z
	 M17.573,54.308c-0.486,0-0.88-0.394-0.88-0.879c0-0.485,0.394-0.878,0.88-0.878c0.483,0,0.877,0.394,0.877,0.878
	C18.45,53.914,18.057,54.308,17.573,54.308z M52.73,43.146c0-0.582,0.472-1.054,1.054-1.054s1.053,0.472,1.053,1.054
	s-0.471,1.054-1.053,1.054S52.73,43.728,52.73,43.146z M55.271,49.848c-0.584,0-1.055-0.472-1.055-1.054s0.471-1.054,1.055-1.054
	c0.581,0,1.053,0.472,1.053,1.054S55.852,49.848,55.271,49.848z M65.209,46.002c-1.235,0-2.241-1.005-2.241-2.241
	c0-1.236,1.006-2.241,2.241-2.241c0.619,0,1.181,0.252,1.587,0.659h-1.587v3.164h1.587C66.39,45.75,65.828,46.002,65.209,46.002z
	 M81.041,46.549l-3.175-1.855v-2.515h-2.124c0.032-0.206,0.101-0.406,0.21-0.591c0.307-0.525,0.875-0.851,1.483-0.851
	c0.302,0,0.601,0.082,0.862,0.235l4.475,2.614c0.396,0.232,0.678,0.603,0.794,1.045c0.022,0.084,0.032,0.17,0.041,0.255
	l-1.847,1.609l0.234,0.268C81.667,46.786,81.334,46.72,81.041,46.549z M91.766,52.057c0.438-0.382,1.104-0.336,1.486,0.105
	c0.383,0.439,0.337,1.104-0.103,1.487c-0.438,0.381-1.104,0.336-1.486-0.105c-0.021-0.023-0.025-0.053-0.043-0.076l0.23-0.202
	l-0.439-0.506C91.434,52.499,91.551,52.244,91.766,52.057z M86.528,54.646c0.44-0.382,1.105-0.336,1.489,0.104
	c0.381,0.438,0.335,1.104-0.104,1.486c-0.439,0.382-1.104,0.336-1.487-0.103C86.044,55.695,86.091,55.028,86.528,54.646z
	 M87.755,82.097c-5.534-5.211-4.848-12.742,0.244-18.331c5.735-4.571,13.167-4.927,18.047,0.679
	c4.682,5.376,3.893,12.644-0.838,17.725C99.967,86.43,92.825,86.875,87.755,82.097z M107.153,85.181
	c-0.337,0.293-0.847,0.257-1.14-0.078c-0.292-0.336-0.257-0.847,0.079-1.139c0.338-0.294,0.848-0.257,1.14,0.078
	C107.525,84.379,107.49,84.889,107.153,85.181z"/>
</svg>
