<?xml version="1.0" encoding="UTF-8" standalone="no"?>
<!-- Generator: Adobe Illustrator 16.0.0, SVG Export Plug-In . SVG Version: 6.00 Build 0)  -->

<svg
   xmlns:dc="http://purl.org/dc/elements/1.1/"
   xmlns:cc="http://creativecommons.org/ns#"
   xmlns:rdf="http://www.w3.org/1999/02/22-rdf-syntax-ns#"
   xmlns:svg="http://www.w3.org/2000/svg"
   xmlns="http://www.w3.org/2000/svg"
   xmlns:sodipodi="http://sodipodi.sourceforge.net/DTD/sodipodi-0.dtd"
   xmlns:inkscape="http://www.inkscape.org/namespaces/inkscape"
   version="1.1"
   id="Layer_1"
   x="0px"
   y="0px"
   width="72px"
   height="72px"
   viewBox="0 0 72 72"
   enable-background="new 0 0 72 72"
   xml:space="preserve"
   inkscape:version="0.48.5 r10040"
   sodipodi:docname="searching40.svg"><metadata
   id="metadata3791"><rdf:RDF><cc:Work
       rdf:about=""><dc:format>image/svg+xml</dc:format><dc:type
         rdf:resource="http://purl.org/dc/dcmitype/StillImage" /><dc:title></dc:title></cc:Work></rdf:RDF></metadata><defs
   id="defs3789" /><sodipodi:namedview
   pagecolor="#ffffff"
   bordercolor="#666666"
   borderopacity="1"
   objecttolerance="10"
   gridtolerance="10"
   guidetolerance="10"
   inkscape:pageopacity="0"
   inkscape:pageshadow="2"
   inkscape:window-width="1366"
   inkscape:window-height="745"
   id="namedview3787"
   showgrid="false"
   inkscape:zoom="7.75"
   inkscape:cx="36"
   inkscape:cy="36"
   inkscape:window-x="-8"
   inkscape:window-y="424"
   inkscape:window-maximized="1"
   inkscape:current-layer="Layer_1" />
<g
   id="g3769">
	<g
   id="g3771">
		<path
   d="M28.131,52.964c-13.509,0-24.5-10.99-24.5-24.499c0-13.51,10.991-24.5,24.5-24.5c13.51,0,24.5,10.99,24.5,24.5    C52.632,41.974,41.642,52.964,28.131,52.964z M28.131,7.965c-11.304,0-20.5,9.196-20.5,20.5s9.196,20.499,20.5,20.499    c11.303,0,20.5-9.195,20.5-20.499S39.435,7.965,28.131,7.965z"
   id="path3773" />
	</g>
	<g
   id="g3775">
		<path
   d="M13.648,20.881c-0.174,0-0.35-0.045-0.51-0.141c-0.475-0.281-0.631-0.896-0.349-1.37c3.201-5.39,9.08-8.738,15.342-8.738    c0.553,0,1,0.447,1,1s-0.447,1-1,1c-5.56,0-10.779,2.974-13.622,7.76C14.322,20.707,13.99,20.881,13.648,20.881z"
   id="path3777" />
	</g>
	<g
   id="g3779">
		<path
   d="M11.298,28.879c-0.552,0-1-0.447-1-1c0-1.42,0.169-2.211,0.468-3.487c0.126-0.538,0.664-0.87,1.201-0.746    c0.538,0.126,0.872,0.663,0.746,1.201c-0.28,1.198-0.415,1.827-0.415,3.032C12.298,28.432,11.851,28.879,11.298,28.879z"
   id="path3781" />
	</g>
	<g
   id="g3783">
		<path
   d="M62.37,68.035c-1.604,0-3.109-0.623-4.244-1.756L41.985,50.136c-1.252-1.252-1.664-2.799-1.162-4.357    c0.41-1.268,1.371-2.338,2.162-3.127c1.172-1.172,2.613-2.371,4.422-2.371c0.771,0,1.93,0.238,3.063,1.371l16.143,16.141    c1.133,1.135,1.756,2.641,1.756,4.244c0,1.602-0.623,3.109-1.756,4.242C65.478,67.412,63.972,68.035,62.37,68.035z M44.614,47.076    c0.006,0,0.059,0.094,0.199,0.232l16.141,16.143c0.756,0.754,2.074,0.754,2.83,0c0.377-0.379,0.584-0.881,0.584-1.414    c0-0.535-0.207-1.037-0.586-1.416L47.642,44.48c-0.143-0.143-0.236-0.195-0.262-0.203c-0.014,0.008-0.426,0.061-1.566,1.203    C44.671,46.621,44.616,47.033,44.614,47.076L44.614,47.076z"
   id="path3785" />
	</g>
</g>
</svg>