<?xml version="1.0" encoding="UTF-8" standalone="no"?>
<!-- The icon can be used freely in both personal and commercial projects with no attribution required, but always appreciated. 
You may NOT sub-license, resell, rent, redistribute or otherwise transfer the icon without express written permission from iconmonstr.com -->

<svg
   xmlns:dc="http://purl.org/dc/elements/1.1/"
   xmlns:cc="http://creativecommons.org/ns#"
   xmlns:rdf="http://www.w3.org/1999/02/22-rdf-syntax-ns#"
   xmlns:svg="http://www.w3.org/2000/svg"
   xmlns="http://www.w3.org/2000/svg"
   xmlns:sodipodi="http://sodipodi.sourceforge.net/DTD/sodipodi-0.dtd"
   xmlns:inkscape="http://www.inkscape.org/namespaces/inkscape"
   version="1.1"
   x="0px"
   y="0px"
   width="106.875"
   height="88.5625"
   viewBox="0 0 106.875 88.5625"
   enable-background="new 0 0 512 512"
   xml:space="preserve"
   id="svg5058"
   inkscape:version="0.48.5 r10040"
   sodipodi:docname="marker_car_sized_new.svg"><metadata
   id="metadata5065"><rdf:RDF><cc:Work
       rdf:about=""><dc:format>image/svg+xml</dc:format><dc:type
         rdf:resource="http://purl.org/dc/dcmitype/StillImage" /><dc:title></dc:title></cc:Work></rdf:RDF></metadata><defs
   id="defs5063" /><sodipodi:namedview
   pagecolor="#ffffff"
   bordercolor="#666666"
   borderopacity="1"
   objecttolerance="10"
   gridtolerance="10"
   guidetolerance="10"
   inkscape:pageopacity="0"
   inkscape:pageshadow="2"
   inkscape:window-width="1366"
   inkscape:window-height="715"
   id="namedview5061"
   showgrid="true"
   inkscape:zoom="1.3037281"
   inkscape:cx="37.422888"
   inkscape:cy="88.12689"
   inkscape:window-x="-8"
   inkscape:window-y="-8"
   inkscape:window-maximized="1"
   inkscape:current-layer="svg5058"
   fit-margin-top="0"
   fit-margin-left="0"
   fit-margin-right="0"
   fit-margin-bottom="0"><inkscape:grid
     type="xygrid"
     id="grid5067"
     empspacing="5"
     visible="true"
     enabled="true"
     snapvisiblegridlinesonly="true"
     originx="-169.875px"
     originy="-210.59375px" /></sodipodi:namedview>

<path
   id="path5314"
   d="M 104.42876,39.042421 H 96.76993 L 90.8729,2.452537 H 16.007648 l -5.89658,36.589884 H 2.452238 V 73.29261 H 9.022623 V 86.09956 H 26.894979 V 73.29261 H 79.98602 V 86.09956 H 97.85838 V 73.29261 h 6.57038 V 39.042421 z M 23.819556,10.512906 H 83.061 l 3.4619,21.479792 H 20.358328 L 23.819556,10.512906 z M 20.718397,63.1185 c -4.209346,0 -7.62177,-3.26998 -7.62177,-7.30313 0,-4.03359 3.412424,-7.303142 7.62177,-7.303142 4.209797,0 7.622005,3.269772 7.622005,7.303142 0,4.03315 -3.412423,7.30313 -7.622005,7.30313 z M 86.1626,48.512011 c 4.20934,0 7.62177,3.269769 7.62177,7.303139 0,4.03337 -3.41243,7.30314 -7.62177,7.30314 -4.20979,0 -7.62201,-3.26998 -7.62201,-7.30314 0,-4.03337 3.41243,-7.303139 7.62201,-7.303139 z"
   inkscape:connector-curvature="0"
   style="fill:#00cc00;fill-opacity:1;stroke:#000000;stroke-width:4.89791727;stroke-miterlimit:4;stroke-opacity:1;stroke-dasharray:none" /></svg>