<?xml version="1.0" encoding="UTF-8" standalone="no"?>
<!-- Generator: Adobe Illustrator 15.0.0, SVG Export Plug-In . SVG Version: 6.00 Build 0)  -->

<svg
   xmlns:dc="http://purl.org/dc/elements/1.1/"
   xmlns:cc="http://creativecommons.org/ns#"
   xmlns:rdf="http://www.w3.org/1999/02/22-rdf-syntax-ns#"
   xmlns:svg="http://www.w3.org/2000/svg"
   xmlns="http://www.w3.org/2000/svg"
   xmlns:sodipodi="http://sodipodi.sourceforge.net/DTD/sodipodi-0.dtd"
   xmlns:inkscape="http://www.inkscape.org/namespaces/inkscape"
   version="1.1"
   id="Icons"
   x="0px"
   y="0px"
   width="90.000999"
   height="62.619587"
   viewBox="0 0 90.000999 62.619587"
   xml:space="preserve"
   inkscape:version="0.48.5 r10040"
   sodipodi:docname="wikipedia2.svg"><metadata
   id="metadata2999"><rdf:RDF><cc:Work
       rdf:about=""><dc:format>image/svg+xml</dc:format><dc:type
         rdf:resource="http://purl.org/dc/dcmitype/StillImage" /><dc:title></dc:title></cc:Work></rdf:RDF></metadata><defs
   id="defs2997" /><sodipodi:namedview
   pagecolor="#ffffff"
   bordercolor="#666666"
   borderopacity="1"
   objecttolerance="10"
   gridtolerance="10"
   guidetolerance="10"
   inkscape:pageopacity="1"
   inkscape:pageshadow="2"
   inkscape:window-width="1366"
   inkscape:window-height="715"
   id="namedview2995"
   showgrid="false"
   fit-margin-top="0"
   fit-margin-left="0"
   fit-margin-right="0"
   fit-margin-bottom="0"
   inkscape:zoom="5.28"
   inkscape:cx="45"
   inkscape:cy="31.619588"
   inkscape:window-x="-8"
   inkscape:window-y="-8"
   inkscape:window-maximized="1"
   inkscape:current-layer="Icons" />
<path
   id="Wikipedia"
   d="m 89.937,0 c 0,0 -13.964,0 -18.606,0 L 70,0.229 v 1.788 c 0,0.21 0.635,0.386 0.811,0.517 0.168,0.142 0.623,0.219 0.81,0.219 l 1.686,0.084 c 1.912,0.09 2.494,0.505 3.239,1.205 0.731,0.725 0.851,1.955 0.281,3.684 L 60.383,50.655 59.755,50.468 49.308,26.97 c 0.152,-0.353 0.243,-0.551 0.243,-0.551 L 58.103,8.841 C 59.098,6.987 60.061,5.33 60.55,4.558 61.443,3.15 61.878,2.884 64.313,2.761 c 0.497,0 0.688,-0.244 0.688,-0.738 V 0.245 L 64.876,0.054 c 0,0 -10.224,-0.035 -14.879,0 L 50,0.237 v 1.779 c 0,0.217 -0.12,0.39 0.045,0.521 0.176,0.142 0.25,0.215 0.439,0.215 l 0.697,0.089 c 1.903,0.09 2.754,0.636 3.013,0.979 0.455,0.615 0.667,1.271 -0.434,3.911 L 47.175,22.151 41.224,8.775 C 39.273,4.501 38.79,3.178 41.732,2.931 l 0.79,-0.183 C 43.088,2.748 43,2.524 43,2.099 V 0.229 L 42.941,0.076 c 0,0 -10.9,0 -15.873,0.003 L 27,0.262 v 1.875 c 0,0.421 0.415,0.529 1.185,0.645 2.755,0.396 2.707,0.713 5.429,6.646 0.407,0.889 1.609,3.57 1.609,3.57 l 6.204,13.391 c 0,0 0.704,1.72 1.805,4.39 l -9.016,19.763 -0.515,-0.145 c 0,0 -13.991,-32.419 -18.037,-43.266 -0.426,-1.117 -0.611,-1.953 -0.611,-2.468 0,-1.102 0.904,-1.699 2.712,-1.779 L 20.516,2.785 C 21.079,2.785 22,2.549 22,2.058 V 0.279 L 21.171,0.095 c 0,0 -17.14,-0.021 -20.602,0 L 0,0.279 v 1.872 c 0,0.336 0.448,0.545 1.227,0.634 2.129,0.129 3.559,0.499 4.229,1.123 0.668,0.628 1.393,2.215 2.333,4.688 5.087,13.424 15.902,37.38 21.166,51.026 1.513,3.723 3.424,4.303 5.733,-0.117 2.379,-4.848 7.178,-15.609 10.679,-23.552 3.275,7.924 7.734,18.644 9.885,23.501 1.712,3.887 3.665,4.271 5.646,0.116 5.183,-12.654 20.32,-50.736 20.32,-50.736 0.654,-1.869 1.568,-3.309 2.746,-4.355 1.169,-1.033 2.909,-1.617 5.349,-1.731 0.494,0 0.688,-0.249 0.688,-0.731 V 0.229 L 89.937,0 z"
   inkscape:connector-curvature="0" />
</svg>