<?xml version="1.0" encoding="UTF-8" standalone="no"?>
<!-- The icon can be used freely in both personal and commercial projects with no attribution required, but always appreciated. 
You may NOT sub-license, resell, rent, redistribute or otherwise transfer the icon without express written permission from iconmonstr.com -->

<svg
   xmlns:dc="http://purl.org/dc/elements/1.1/"
   xmlns:cc="http://creativecommons.org/ns#"
   xmlns:rdf="http://www.w3.org/1999/02/22-rdf-syntax-ns#"
   xmlns:svg="http://www.w3.org/2000/svg"
   xmlns="http://www.w3.org/2000/svg"
   xmlns:sodipodi="http://sodipodi.sourceforge.net/DTD/sodipodi-0.dtd"
   xmlns:inkscape="http://www.inkscape.org/namespaces/inkscape"
   version="1.1"
   x="0px"
   y="0px"
   width="98.53125"
   height="112.39085"
   viewBox="0 0 98.53125 112.39085"
   enable-background="new 0 0 512 512"
   xml:space="preserve"
   id="svg5058"
   inkscape:version="0.48.5 r10040"
   sodipodi:docname="marker_light_sized_new.svg"><metadata
   id="metadata5065"><rdf:RDF><cc:Work
       rdf:about=""><dc:format>image/svg+xml</dc:format><dc:type
         rdf:resource="http://purl.org/dc/dcmitype/StillImage" /><dc:title></dc:title></cc:Work></rdf:RDF></metadata><defs
   id="defs5063" /><sodipodi:namedview
   pagecolor="#ffffff"
   bordercolor="#666666"
   borderopacity="1"
   objecttolerance="10"
   gridtolerance="10"
   guidetolerance="10"
   inkscape:pageopacity="0"
   inkscape:pageshadow="2"
   inkscape:window-width="1366"
   inkscape:window-height="715"
   id="namedview5061"
   showgrid="true"
   inkscape:zoom="1.3037281"
   inkscape:cx="31.610388"
   inkscape:cy="107.50189"
   inkscape:window-x="-8"
   inkscape:window-y="-8"
   inkscape:window-maximized="1"
   inkscape:current-layer="svg5058"
   fit-margin-top="0"
   fit-margin-left="0"
   fit-margin-right="0"
   fit-margin-bottom="0"><inkscape:grid
     type="xygrid"
     id="grid5067"
     empspacing="5"
     visible="true"
     enabled="true"
     snapvisiblegridlinesonly="true"
     originx="-175.6875px"
     originy="-191.21875px" /></sodipodi:namedview>

<path
   d="M 89.93485,8.1624361 77.15617,16.94254 C 61.69125,-8.2458099 11.45263,-2.6199059 11.45263,33.745919 c 0,9.070601 3.692814,16.332286 7.727886,23.032876 L 2.126779,68.496675 8.59259,77.136555 96.40121,16.801786 89.93485,8.1624361 z M 19.774134,33.746184 C 19.774134,6.0364621 58.88582,2.0503111 70.24973,21.68842 L 26.001334,52.092681 C 22.5973,46.423199 19.774134,40.68788 19.774134,33.746184 z M 37.665648,80.733925 H 29.40205 c 0,-2.54898 -0.470293,-4.97824 -1.255686,-7.34479 l 7.017305,-4.82449 c 1.441102,3.67492 2.410243,7.66266 2.501979,12.16928 z M 35.112406,104.51754 H 57.97626 c -6.31534,5.39434 -6.89233,6.38378 -9.23383,6.38378 h -4.614562 c -2.39639,0 -3.013839,-1.06777 -9.015462,-6.38378 z M 61.21708,97.774185 c 0,1.63099 -1.37984,2.953435 -3.08202,2.953435 H 34.953885 c -1.702431,0 -3.082827,-1.322445 -3.082827,-2.953435 0,-1.63154 1.380396,-2.95396 3.082827,-2.95396 H 58.1348 c 1.70244,0 3.08228,1.3227 3.08228,2.95396 z m 0.55482,-9.83432 c 0,1.63126 -1.37986,2.95342 -3.08201,2.95342 H 34.399064 c -1.702441,0 -3.082847,-1.32216 -3.082847,-2.95342 0,-1.63154 1.380406,-2.9537 3.082847,-2.9537 H 58.68933 c 1.70271,0 3.08257,1.32245 3.08257,2.9537 z m 9.58524,-44.25845 10.14422,-6.974383 C 79.86766,54.886245 63.68689,65.748495 63.68689,80.733925 h -8.17378 c 0.005,-15.44216 11.22032,-25.08238 15.84403,-37.05251 z"
   id="light-bulb-14-icon"
   inkscape:connector-curvature="0"
   style="fill:#ffff00;fill-opacity:1;stroke:#000000;stroke-width:3;stroke-miterlimit:4;stroke-opacity:1;stroke-dasharray:none" /></svg>