<?xml version="1.0" encoding="UTF-8" standalone="no"?>
<!-- The icon can be used freely in both personal and commercial projects with no attribution required, but always appreciated. 
You may NOT sub-license, resell, rent, redistribute or otherwise transfer the icon without express written permission from iconmonstr.com -->

<svg
   xmlns:dc="http://purl.org/dc/elements/1.1/"
   xmlns:cc="http://creativecommons.org/ns#"
   xmlns:rdf="http://www.w3.org/1999/02/22-rdf-syntax-ns#"
   xmlns:svg="http://www.w3.org/2000/svg"
   xmlns="http://www.w3.org/2000/svg"
   xmlns:sodipodi="http://sodipodi.sourceforge.net/DTD/sodipodi-0.dtd"
   xmlns:inkscape="http://www.inkscape.org/namespaces/inkscape"
   version="1.1"
   x="0px"
   y="0px"
   width="200"
   height="302.25"
   viewBox="0 0 200 302.25"
   enable-background="new 0 0 512 512"
   xml:space="preserve"
   id="svg5058"
   inkscape:version="0.48.5 r10040"
   sodipodi:docname="marker_food_inspection_1-4.svg"><metadata
   id="metadata5065"><rdf:RDF><cc:Work
       rdf:about=""><dc:format>image/svg+xml</dc:format><dc:type
         rdf:resource="http://purl.org/dc/dcmitype/StillImage" /><dc:title></dc:title></cc:Work></rdf:RDF></metadata><defs
   id="defs5063" /><sodipodi:namedview
   pagecolor="#ffffff"
   bordercolor="#666666"
   borderopacity="1"
   objecttolerance="10"
   gridtolerance="10"
   guidetolerance="10"
   inkscape:pageopacity="0"
   inkscape:pageshadow="2"
   inkscape:window-width="784"
   inkscape:window-height="1131"
   id="namedview5061"
   showgrid="true"
   inkscape:zoom="1.84375"
   inkscape:cx="122.81366"
   inkscape:cy="149.06501"
   inkscape:window-x="1366"
   inkscape:window-y="0"
   inkscape:window-maximized="0"
   inkscape:current-layer="svg5058"
   fit-margin-top="0"
   fit-margin-left="0"
   fit-margin-right="0"
   fit-margin-bottom="0"><inkscape:grid
     type="xygrid"
     id="grid5067"
     empspacing="5"
     visible="true"
     enabled="true"
     snapvisiblegridlinesonly="true"
     originx="-123px"
     originy="-45.25px" /></sodipodi:namedview>
<path
   id="location-4-icon"
   d="M 100,2.4489544 C 46.124911,2.4489544 2.4489588,44.298297 2.4489588,95.921822 2.4489588,147.54535 45.142679,207.53989 100,297.55104 154.85882,207.5406 197.55104,147.54535 197.55104,95.921822 197.55104,44.298297 153.87658,2.4489544 100,2.4489544 z M 99.998,160.50048 c -37.09631,0 -67.168194,-28.81471 -67.168194,-64.360193 0,-35.544762 30.071884,-64.359474 67.168194,-64.359474 37.09706,0 67.16968,28.814712 67.16968,64.359474 0,35.546193 -30.07262,64.360193 -67.16968,64.360193 z"
   inkscape:connector-curvature="0"
   style="fill:#ff00ff;fill-opacity:1;stroke:#000000;stroke-width:4.89791726999999980;stroke-miterlimit:4;stroke-opacity:1;stroke-dasharray:none" />
<g
   id="g7926"
   transform="matrix(0.16342793,0,0,0.16342793,30.356409,54.859131)"
   style="fill:#ff00ff;fill-opacity:1;stroke:#000000;stroke-width:18.35671616;stroke-miterlimit:4;stroke-opacity:1;stroke-dasharray:none">
	<path
   id="path7928"
   d="M 654.91661,46.753753 V 274.73349 498.26462 h 46.18404 V 274.73349 h 36.32003 v -94.3939 c 0,-136.256249 -82.50407,-133.585837 -82.50407,-133.585837 z"
   inkscape:connector-curvature="0"
   style="fill:#ff00ff;fill-opacity:1;stroke:#000000;stroke-width:18.68645096;stroke-miterlimit:4;stroke-opacity:1;stroke-dasharray:none" />
	<path
   id="path7930"
   d="M 231.99043,60.659575 V 187.48857 h -24.064 V 60.659575 h -32.659 V 187.48857 h -24.065 V 60.659575 h -29.219 c 0,111.576995 0,111.576995 0,186.131995 h 43.458 v 249.729 h 52.312 v -249.729 h 43.458 V 60.659575 h -29.221 z"
   inkscape:connector-curvature="0"
   style="fill:#ff00ff;fill-opacity:1;stroke:#000000;stroke-width:18.35671616;stroke-miterlimit:4;stroke-opacity:1;stroke-dasharray:none" />
</g><path
   id="path8518"
   d="m 109.93875,137.59739 c 0,-1.42485 -0.20701,-2.77469 -0.62015,-4.04918 -0.41344,-1.27522 -1.00436,-2.38097 -1.77188,-3.31872 -0.76781,-0.93739 -1.65375,-1.68731 -2.65781,-2.24938 -1.00407,-0.5628 -2.06719,-0.84401 -3.18938,-0.84401 -1.12219,0 -2.18531,0.28121 -3.18938,0.84401 -1.00406,0.56244 -1.87523,1.31236 -2.61352,2.24938 -0.73828,0.93775 -1.31413,2.0435 -1.72758,3.31872 -0.41343,1.27486 -0.62015,2.62433 -0.62015,4.04918 0,1.42482 0.20672,2.77504 0.62015,4.04951 0.41345,1.27522 0.9893,2.38098 1.72758,3.31837 0.73829,0.93776 1.60946,1.68768 2.61352,2.24974 1.00407,0.56281 2.06719,0.84365 3.18938,0.84365 1.12219,0 2.18531,-0.28084 3.18938,-0.84365 1.00435,-0.56245 1.89029,-1.31235 2.65781,-2.24974 0.76782,-0.93739 1.35844,-2.04315 1.77188,-3.31837 0.41343,-1.27484 0.62015,-2.62469 0.62015,-4.04951 z m -7.61907,-15.07325 h -0.70874 c -1.89,-0.29997 -3.4404,-1.38734 -4.65118,-3.26213 -1.21078,-1.87442 -1.72758,-4.01202 -1.55039,-6.41175 0.35438,-4.12433 1.16648,-8.11779 2.43633,-11.97987 1.26984,-3.862219 2.90883,-7.292877 4.91696,-10.292525 0.64969,-1.049883 1.35844,-2.006025 2.12625,-2.868426 0.7681,-0.8624 1.53562,-1.706047 2.30343,-2.530954 1.94907,-2.099754 3.44068,-3.974531 4.47399,-5.624339 1.03331,-1.649809 1.55039,-3.674575 1.55039,-6.074292 0,-2.099757 -0.3396,-3.824557 -1.01882,-5.174399 -0.67893,-1.349841 -1.50596,-2.418469 -2.48063,-3.205874 -0.97468,-0.787411 -1.99351,-1.349841 -3.05648,-1.687304 -1.06313,-0.337461 -2.00813,-0.506189 -2.83501,-0.506189 h -0.17718 c -1.65375,0 -3.01219,0.281215 -4.07532,0.843652 -1.06313,0.56243 -1.96383,1.349841 -2.70212,2.362222 -0.73827,1.012379 -1.35843,2.230989 -1.86047,3.655822 -0.50202,1.424834 -1.01882,2.962154 -1.55039,4.611962 -0.70874,2.324732 -1.56515,3.95579 -2.56921,4.893178 -1.00407,0.937395 -2.00813,1.48108 -3.01219,1.631064 -1.1222,0.299966 -2.27392,0.187477 -3.45517,-0.337463 -1.18125,-0.599932 -2.12625,-1.462329 -2.835,-2.587196 -0.64969,-0.97489 -1.15172,-2.230991 -1.50609,-3.76831 -0.35437,-1.537322 -0.23625,-3.430854 0.35437,-5.680589 0.35438,-1.424834 0.97454,-3.468344 1.86047,-6.130538 0.88594,-2.662188 2.22961,-5.268135 4.03103,-7.817836 1.8014,-2.549701 4.1196,-4.761945 6.95461,-6.636727 2.835,-1.874779 6.37876,-2.774676 10.63126,-2.699685 2.835,0.07499 5.6257,0.731165 8.37211,1.96852 2.74641,1.237359 5.21227,3.055896 7.39759,5.455613 2.1856,2.399724 3.95719,5.343127 5.31592,8.830223 1.35843,3.487094 2.03736,7.480378 2.03736,11.979854 0,3.299616 -0.35409,6.224274 -1.06312,8.773975 -0.70876,2.549704 -1.60946,4.83694 -2.70211,6.861693 -1.09266,2.024766 -2.27391,3.78706 -3.54376,5.286885 -1.26984,1.499824 -2.43633,2.849672 -3.49946,4.049523 -0.59063,0.67492 -1.15171,1.2936 -1.68357,1.85604 -0.53157,0.56279 -0.94471,1.10649 -1.24003,1.63105 -1.06312,1.65018 -1.96382,3.58085 -2.7021,5.79345 -0.73858,2.21225 -1.19602,4.51824 -1.37321,6.91794 -0.17718,2.32473 -0.93023,4.21827 -2.25885,5.6806 -1.3292,1.46197 -2.87959,2.19312 -4.65147,2.19312 z"
   inkscape:connector-curvature="0"
   style="fill:#ff00ff;fill-opacity:1;stroke:#000000;stroke-width:3.38041878;stroke-miterlimit:4;stroke-opacity:1;stroke-dasharray:none" /></svg>