<?xml version="1.0" encoding="UTF-8" standalone="no"?>
<!-- The icon can be used freely in both personal and commercial projects with no attribution required, but always appreciated. 
You may NOT sub-license, resell, rent, redistribute or otherwise transfer the icon without express written permission from iconmonstr.com -->

<svg
   xmlns:dc="http://purl.org/dc/elements/1.1/"
   xmlns:cc="http://creativecommons.org/ns#"
   xmlns:rdf="http://www.w3.org/1999/02/22-rdf-syntax-ns#"
   xmlns:svg="http://www.w3.org/2000/svg"
   xmlns="http://www.w3.org/2000/svg"
   xmlns:sodipodi="http://sodipodi.sourceforge.net/DTD/sodipodi-0.dtd"
   xmlns:inkscape="http://www.inkscape.org/namespaces/inkscape"
   version="1.1"
   x="0px"
   y="0px"
   width="200"
   height="302.25"
   viewBox="0 0 200 302.25"
   enable-background="new 0 0 512 512"
   xml:space="preserve"
   id="svg5058"
   inkscape:version="0.48.5 r10040"
   sodipodi:docname="marker_car_sized_new.svg"><metadata
   id="metadata5065"><rdf:RDF><cc:Work
       rdf:about=""><dc:format>image/svg+xml</dc:format><dc:type
         rdf:resource="http://purl.org/dc/dcmitype/StillImage" /><dc:title></dc:title></cc:Work></rdf:RDF></metadata><defs
   id="defs5063" /><sodipodi:namedview
   pagecolor="#ffffff"
   bordercolor="#666666"
   borderopacity="1"
   objecttolerance="10"
   gridtolerance="10"
   guidetolerance="10"
   inkscape:pageopacity="0"
   inkscape:pageshadow="2"
   inkscape:window-width="1920"
   inkscape:window-height="1058"
   id="namedview5061"
   showgrid="true"
   inkscape:zoom="1.3037281"
   inkscape:cx="84.297888"
   inkscape:cy="253.47064"
   inkscape:window-x="-8"
   inkscape:window-y="-8"
   inkscape:window-maximized="1"
   inkscape:current-layer="svg5058"
   fit-margin-top="0"
   fit-margin-left="0"
   fit-margin-right="0"
   fit-margin-bottom="0"><inkscape:grid
     type="xygrid"
     id="grid5067"
     empspacing="5"
     visible="true"
     enabled="true"
     snapvisiblegridlinesonly="true"
     originx="-123px"
     originy="-45.25px" /></sodipodi:namedview>
<path
   id="location-4-icon"
   d="M 100,2.4489544 C 46.124911,2.4489544 2.4489588,44.298297 2.4489588,95.921822 2.4489588,147.54535 45.142679,207.53989 100,297.55104 154.85882,207.5406 197.55104,147.54535 197.55104,95.921822 197.55104,44.298297 153.87658,2.4489544 100,2.4489544 z M 99.998,160.50048 c -37.09631,0 -67.168194,-28.81471 -67.168194,-64.360193 0,-35.544762 30.071884,-64.359474 67.168194,-64.359474 37.09706,0 67.16968,28.814712 67.16968,64.359474 0,35.546193 -30.07262,64.360193 -67.16968,64.360193 z"
   inkscape:connector-curvature="0"
   style="fill:#00cc00;fill-opacity:1;stroke:#000000;stroke-width:4.89791727;stroke-miterlimit:4;stroke-opacity:1;stroke-dasharray:none" />
<path
   id="path5314"
   d="m 151.30376,87.386171 h -7.65883 L 137.7479,50.796287 H 62.882648 l -5.89658,36.589884 h -7.65883 v 34.250189 h 6.570385 v 12.80695 h 17.872356 v -12.80695 h 53.091041 v 12.80695 h 17.87236 v -12.80695 h 6.57038 V 87.386171 z M 70.694556,58.856656 H 129.936 l 3.4619,21.479792 H 67.233328 l 3.461228,-21.479792 z m -3.101159,52.605594 c -4.209346,0 -7.62177,-3.26998 -7.62177,-7.30313 0,-4.03359 3.412424,-7.303142 7.62177,-7.303142 4.209797,0 7.622005,3.269772 7.622005,7.303142 0,4.03315 -3.412423,7.30313 -7.622005,7.30313 z M 133.0376,96.855761 c 4.20934,0 7.62177,3.269769 7.62177,7.303139 0,4.03337 -3.41243,7.30314 -7.62177,7.30314 -4.20979,0 -7.62201,-3.26998 -7.62201,-7.30314 0,-4.03337 3.41243,-7.303139 7.62201,-7.303139 z"
   inkscape:connector-curvature="0"
   style="fill:#00cc00;fill-opacity:1;stroke:#000000;stroke-width:4.89791727;stroke-miterlimit:4;stroke-opacity:1;stroke-dasharray:none" /></svg>