<?xml version="1.0" encoding="UTF-8" standalone="no"?>
<!-- The icon can be used freely in both personal and commercial projects with no attribution required, but always appreciated. 
You may NOT sub-license, resell, rent, redistribute or otherwise transfer the icon without express written permission from iconmonstr.com -->

<svg
   xmlns:dc="http://purl.org/dc/elements/1.1/"
   xmlns:cc="http://creativecommons.org/ns#"
   xmlns:rdf="http://www.w3.org/1999/02/22-rdf-syntax-ns#"
   xmlns:svg="http://www.w3.org/2000/svg"
   xmlns="http://www.w3.org/2000/svg"
   xmlns:sodipodi="http://sodipodi.sourceforge.net/DTD/sodipodi-0.dtd"
   xmlns:inkscape="http://www.inkscape.org/namespaces/inkscape"
   version="1.1"
   x="0px"
   y="0px"
   width="200"
   height="302.25"
   viewBox="0 0 200 302.25"
   enable-background="new 0 0 512 512"
   xml:space="preserve"
   id="svg5058"
   inkscape:version="0.48.5 r10040"
   sodipodi:docname="marker_light_sized_old.svg"><metadata
   id="metadata5065"><rdf:RDF><cc:Work
       rdf:about=""><dc:format>image/svg+xml</dc:format><dc:type
         rdf:resource="http://purl.org/dc/dcmitype/StillImage" /><dc:title></dc:title></cc:Work></rdf:RDF></metadata><defs
   id="defs5063" /><sodipodi:namedview
   pagecolor="#ffffff"
   bordercolor="#666666"
   borderopacity="1"
   objecttolerance="10"
   gridtolerance="10"
   guidetolerance="10"
   inkscape:pageopacity="0"
   inkscape:pageshadow="2"
   inkscape:window-width="1920"
   inkscape:window-height="1058"
   id="namedview5061"
   showgrid="true"
   inkscape:zoom="1.3037281"
   inkscape:cx="84.297888"
   inkscape:cy="253.47064"
   inkscape:window-x="-8"
   inkscape:window-y="-8"
   inkscape:window-maximized="1"
   inkscape:current-layer="svg5058"
   fit-margin-top="0"
   fit-margin-left="0"
   fit-margin-right="0"
   fit-margin-bottom="0"><inkscape:grid
     type="xygrid"
     id="grid5067"
     empspacing="5"
     visible="true"
     enabled="true"
     snapvisiblegridlinesonly="true"
     originx="-123px"
     originy="-45.25px" /></sodipodi:namedview>
<path
   id="location-4-icon"
   d="M 100,2.4489544 C 46.124911,2.4489544 2.4489588,44.298297 2.4489588,95.921822 2.4489588,147.54535 45.142679,207.53989 100,297.55104 154.85882,207.5406 197.55104,147.54535 197.55104,95.921822 197.55104,44.298297 153.87658,2.4489544 100,2.4489544 z M 99.998,160.50048 c -37.09631,0 -67.168194,-28.81471 -67.168194,-64.360193 0,-35.544762 30.071884,-64.359474 67.168194,-64.359474 37.09706,0 67.16968,28.814712 67.16968,64.359474 0,35.546193 -30.07262,64.360193 -67.16968,64.360193 z"
   inkscape:connector-curvature="0"
   style="fill:#ffff00;fill-opacity:1;stroke:#000000;stroke-width:4.89791726999999980;stroke-miterlimit:4;stroke-opacity:1;stroke-dasharray:none" />
<path
   d="m 142.62235,52.052841 -12.77868,8.780104 C 114.37875,35.644595 64.14013,41.270499 64.14013,77.636324 c 0,9.070601 3.692814,16.332286 7.727886,23.032876 l -17.053737,11.71788 6.465811,8.63988 87.80862,-60.334769 -6.46636,-8.63935 z M 72.461634,77.636589 c 0,-27.709722 39.111686,-31.695873 50.475596,-12.057764 L 78.688834,95.983086 C 75.2848,90.313604 72.461634,84.578285 72.461634,77.636589 z M 90.353148,124.62433 H 82.08955 c 0,-2.54898 -0.470293,-4.97824 -1.255686,-7.34479 l 7.017305,-4.82449 c 1.441102,3.67492 2.410243,7.66266 2.501979,12.16928 z m -2.553242,23.78361 h 22.863854 c -6.31534,5.39434 -6.89233,6.38378 -9.23383,6.38378 h -4.614562 c -2.39639,0 -3.013839,-1.06777 -9.015462,-6.38378 z m 26.104674,-6.74335 c 0,1.63099 -1.37984,2.95343 -3.08202,2.95343 H 87.641385 c -1.702431,0 -3.082827,-1.32244 -3.082827,-2.95343 0,-1.63154 1.380396,-2.95396 3.082827,-2.95396 H 110.8223 c 1.70244,0 3.08228,1.3227 3.08228,2.95396 z m 0.55482,-9.83432 c 0,1.63126 -1.37986,2.95342 -3.08201,2.95342 H 87.086564 c -1.702441,0 -3.082847,-1.32216 -3.082847,-2.95342 0,-1.63154 1.380406,-2.9537 3.082847,-2.9537 h 24.290266 c 1.70271,0 3.08257,1.32245 3.08257,2.9537 z m 9.58524,-44.25845 10.14422,-6.974383 c -1.6337,18.179213 -17.81447,29.041463 -17.81447,44.026893 h -8.17378 c 0.005,-15.44216 11.22032,-25.08238 15.84403,-37.05251 z"
   id="light-bulb-14-icon"
   inkscape:connector-curvature="0"
   style="fill:#ffff00;fill-opacity:1;stroke:#000000;stroke-width:3;stroke-miterlimit:4;stroke-opacity:1;stroke-dasharray:none" /></svg>