<?xml version="1.0" encoding="UTF-8" standalone="no"?>
<!-- The icon can be used freely in both personal and commercial projects with no attribution required, but always appreciated. 
You may NOT sub-license, resell, rent, redistribute or otherwise transfer the icon without express written permission from iconmonstr.com -->

<svg
   xmlns:dc="http://purl.org/dc/elements/1.1/"
   xmlns:cc="http://creativecommons.org/ns#"
   xmlns:rdf="http://www.w3.org/1999/02/22-rdf-syntax-ns#"
   xmlns:svg="http://www.w3.org/2000/svg"
   xmlns="http://www.w3.org/2000/svg"
   xmlns:sodipodi="http://sodipodi.sourceforge.net/DTD/sodipodi-0.dtd"
   xmlns:inkscape="http://www.inkscape.org/namespaces/inkscape"
   version="1.1"
   x="0px"
   y="0px"
   width="200"
   height="302.25"
   viewBox="0 0 200 302.25"
   enable-background="new 0 0 512 512"
   xml:space="preserve"
   id="svg5058"
   inkscape:version="0.48.5 r10040"
   sodipodi:docname="marker_food_inspection_2-2.svg"><metadata
   id="metadata5065"><rdf:RDF><cc:Work
       rdf:about=""><dc:format>image/svg+xml</dc:format><dc:type
         rdf:resource="http://purl.org/dc/dcmitype/StillImage" /><dc:title></dc:title></cc:Work></rdf:RDF></metadata><defs
   id="defs5063" /><sodipodi:namedview
   pagecolor="#ffffff"
   bordercolor="#666666"
   borderopacity="1"
   objecttolerance="10"
   gridtolerance="10"
   guidetolerance="10"
   inkscape:pageopacity="0"
   inkscape:pageshadow="2"
   inkscape:window-width="1366"
   inkscape:window-height="745"
   id="namedview5061"
   showgrid="true"
   inkscape:zoom="0.92187498"
   inkscape:cx="228.69314"
   inkscape:cy="92.351702"
   inkscape:window-x="-8"
   inkscape:window-y="424"
   inkscape:window-maximized="1"
   inkscape:current-layer="svg5058"
   fit-margin-top="0"
   fit-margin-left="0"
   fit-margin-right="0"
   fit-margin-bottom="0"><inkscape:grid
     type="xygrid"
     id="grid5067"
     empspacing="5"
     visible="true"
     enabled="true"
     snapvisiblegridlinesonly="true"
     originx="-123px"
     originy="-45.25px" /></sodipodi:namedview>
<path
   id="location-4-icon"
   d="M 100,2.4489544 C 46.124911,2.4489544 2.4489588,44.298297 2.4489588,95.921822 2.4489588,147.54535 45.142679,207.53989 100,297.55104 154.85882,207.5406 197.55104,147.54535 197.55104,95.921822 197.55104,44.298297 153.87658,2.4489544 100,2.4489544 z M 99.998,160.50048 c -37.09631,0 -67.168194,-28.81471 -67.168194,-64.360193 0,-35.544762 30.071884,-64.359474 67.168194,-64.359474 37.09706,0 67.16968,28.814712 67.16968,64.359474 0,35.546193 -30.07262,64.360193 -67.16968,64.360193 z"
   inkscape:connector-curvature="0"
   style="fill:#ff00ff;fill-opacity:1;stroke:#000000;stroke-width:4.89791726999999980;stroke-miterlimit:4;stroke-opacity:1;stroke-dasharray:none" />
<g
   id="g9328"
   transform="matrix(2.856363,0,0,2.856363,63.145567,62.245023)"
   style="fill:#ff00ff;fill-opacity:1;stroke:#000000;stroke-width:1.05028665;stroke-miterlimit:4;stroke-opacity:1;stroke-dasharray:none"><g
     id="g9282"
     style="fill:#ff00ff;fill-opacity:1;stroke:#000000;stroke-width:1.05028665;stroke-miterlimit:4;stroke-opacity:1;stroke-dasharray:none">
	<path
   id="path9284"
   d="M 6.4050688,10.489712 C 6.1780878,10.233032 5.9503998,9.9756449 5.7375608,9.6991659 5.2157158,9.0599419 4.7589248,8.3514209 4.3205188,7.6556278 4.1161648,7.2942958 3.9217108,6.9301358 3.7378628,6.5680978 3.5851278,6.1876738 3.4316858,5.8107858 3.2838998,5.4409688 3.0300489,4.6836579 2.8391301,3.9298821 2.7797331,3.1987337 c -0.02192,-0.1817265 -0.041719,-0.3599174 -0.06364,-0.535987 0,-0.1767767 0.00283,-0.3507249 0.00283,-0.5218448 0.016969,-0.3422397 -0.00283,-0.6745798 0.047375,-0.9835855 0.092631,-0.62296126 0.157685,-1.19147506 0.3238551,-1.67018636 0.1371786,-0.4836611 0.2531446,-0.90085414 0.4087076,-1.22612324 0.281429,-0.6604377 0.453256,-1.0231835 0.453256,-1.0231835 0,0 -0.04667,0.4087077 -0.152028,1.1009652 -0.07142,0.3401184 -0.07708,0.77003934 -0.120209,1.24733644 -0.06293,0.4772971 -0.01131,1.019648 -0.01838,1.59523286 -1e-6,0.2913282 0.0693,0.5868989 0.0997,0.8930761 0.01838,0.1527351 0.03606,0.3075914 0.05303,0.4659834 0.0396,0.1541492 0.07707,0.3104198 0.115965,0.4695189 0.123744,0.6385174 0.379009,1.278449 0.632861,1.9325228 0.155563,0.3196118 0.313248,0.6441738 0.47164,0.9722718 0.195161,0.311127 0.386787,0.631446 0.571342,0.956008 0.418607,0.629325 0.849235,1.2664291 1.354109,1.8603981 0.168292,0.230517 0.354261,0.446184 0.538109,0.666802 C 11.863227,5.0343823 15.243904,1.6593616 19.970913,-3.0676472 19.779994,-3.2910929 19.578469,-3.5095889 19.367751,-3.7203067 15.38674,-7.7013176 9.2066267,-8.0789126 5.0403538,-4.7809666 5.0552028,-5.24695 4.8883258,-5.7192973 4.5326508,-6.074972 c -0.682358,-0.6851864 -1.7889799,-0.6844793 -2.471338,-0.00212 -0.6830651,0.6830651 -0.6844793,1.7903944 -7.071e-4,2.4741666 0.3563819,0.3563819 0.827315,0.523259 1.2947121,0.5069956 -3.29865292,4.1669805 -2.92035082,10.3463869 1.06066,14.3273978 0.210011,0.21001 0.424971,0.409414 0.647003,0.600333 0.461033,-0.461033 0.905804,-0.905804 1.342088,-1.342088 z"
   inkscape:connector-curvature="0"
   style="fill:#ff00ff;fill-opacity:1;stroke:#000000;stroke-width:1.05028665;stroke-miterlimit:4;stroke-opacity:1;stroke-dasharray:none" />
	<rect
   id="rect9286"
   height="2.2060001"
   width="24.996"
   y="15.437"
   x="7.0040002"
   style="fill:#ff00ff;fill-opacity:1;stroke:#000000;stroke-width:1.05028665;stroke-miterlimit:4;stroke-opacity:1;stroke-dasharray:none" />
	<path
   id="path9288"
   d="m 21.739,19.208 c -1.271,0.617 -5.701,2.215 -5.701,2.215 l -5.236,-0.328 c 0,0 2.995,-0.833 4.156,-1.094 1.163,-0.26 0.657,-1.572 0.014,-1.572 -0.643,0 -6.247,0.232 -6.247,0.232 l -3.721,1.34 0.985,6.234 c 0,0 0.766,-1.312 1.53,-1.312 0.767,0 7.411,0.177 8.313,0 0.902,-0.179 6.398,-3.938 7.056,-4.377 0.656,-0.437 0.125,-1.956 -1.149,-1.338 z"
   inkscape:connector-curvature="0"
   style="fill:#ff00ff;fill-opacity:1;stroke:#000000;stroke-width:1.05028665;stroke-miterlimit:4;stroke-opacity:1;stroke-dasharray:none" />
	<polygon
   id="polygon9290"
   points="0,28.751 5.701,27.684 4.275,19.919 0,20.671 "
   style="fill:#ff00ff;fill-opacity:1;stroke:#000000;stroke-width:1.05028665;stroke-miterlimit:4;stroke-opacity:1;stroke-dasharray:none"
   transform="matrix(0.8861202,0,0,1,0.64922876,0)" />
</g><g
     id="g9292"
     style="fill:#ff00ff;fill-opacity:1;stroke:#000000;stroke-width:1.05028665;stroke-miterlimit:4;stroke-opacity:1;stroke-dasharray:none">
</g><g
     id="g9294"
     style="fill:#ff00ff;fill-opacity:1;stroke:#000000;stroke-width:1.05028665;stroke-miterlimit:4;stroke-opacity:1;stroke-dasharray:none">
</g><g
     id="g9296"
     style="fill:#ff00ff;fill-opacity:1;stroke:#000000;stroke-width:1.05028665;stroke-miterlimit:4;stroke-opacity:1;stroke-dasharray:none">
</g><g
     id="g9298"
     style="fill:#ff00ff;fill-opacity:1;stroke:#000000;stroke-width:1.05028665;stroke-miterlimit:4;stroke-opacity:1;stroke-dasharray:none">
</g><g
     id="g9300"
     style="fill:#ff00ff;fill-opacity:1;stroke:#000000;stroke-width:1.05028665;stroke-miterlimit:4;stroke-opacity:1;stroke-dasharray:none">
</g><g
     id="g9302"
     style="fill:#ff00ff;fill-opacity:1;stroke:#000000;stroke-width:1.05028665;stroke-miterlimit:4;stroke-opacity:1;stroke-dasharray:none">
</g><g
     id="g9304"
     style="fill:#ff00ff;fill-opacity:1;stroke:#000000;stroke-width:1.05028665;stroke-miterlimit:4;stroke-opacity:1;stroke-dasharray:none">
</g><g
     id="g9306"
     style="fill:#ff00ff;fill-opacity:1;stroke:#000000;stroke-width:1.05028665;stroke-miterlimit:4;stroke-opacity:1;stroke-dasharray:none">
</g><g
     id="g9308"
     style="fill:#ff00ff;fill-opacity:1;stroke:#000000;stroke-width:1.05028665;stroke-miterlimit:4;stroke-opacity:1;stroke-dasharray:none">
</g><g
     id="g9310"
     style="fill:#ff00ff;fill-opacity:1;stroke:#000000;stroke-width:1.05028665;stroke-miterlimit:4;stroke-opacity:1;stroke-dasharray:none">
</g><g
     id="g9312"
     style="fill:#ff00ff;fill-opacity:1;stroke:#000000;stroke-width:1.05028665;stroke-miterlimit:4;stroke-opacity:1;stroke-dasharray:none">
</g><g
     id="g9314"
     style="fill:#ff00ff;fill-opacity:1;stroke:#000000;stroke-width:1.05028665;stroke-miterlimit:4;stroke-opacity:1;stroke-dasharray:none">
</g><g
     id="g9316"
     style="fill:#ff00ff;fill-opacity:1;stroke:#000000;stroke-width:1.05028665;stroke-miterlimit:4;stroke-opacity:1;stroke-dasharray:none">
</g><g
     id="g9318"
     style="fill:#ff00ff;fill-opacity:1;stroke:#000000;stroke-width:1.05028665;stroke-miterlimit:4;stroke-opacity:1;stroke-dasharray:none">
</g><g
     id="g9320"
     style="fill:#ff00ff;fill-opacity:1;stroke:#000000;stroke-width:1.05028665;stroke-miterlimit:4;stroke-opacity:1;stroke-dasharray:none">
</g></g><path
   id="path9360"
   d="m 123.50714,98.49817 c 0,-0.511067 -0.0943,-0.995238 -0.28244,-1.452383 -0.18828,-0.457407 -0.45741,-0.854026 -0.80695,-1.19039 -0.34969,-0.336226 -0.75315,-0.605215 -1.21043,-0.806822 -0.45728,-0.201869 -0.94145,-0.302735 -1.45252,-0.302735 -0.51107,0 -0.99524,0.100866 -1.45251,0.302735 -0.45728,0.201746 -0.85403,0.470728 -1.19026,0.806822 -0.33623,0.336364 -0.5985,0.732983 -0.78678,1.19039 -0.18829,0.457276 -0.28244,0.941316 -0.28244,1.452383 0,0.51108 0.0941,0.99538 0.28244,1.45252 0.18828,0.4574 0.45055,0.85402 0.78678,1.19026 0.33623,0.33636 0.73298,0.60534 1.19026,0.80695 0.45727,0.20187 0.94144,0.30261 1.45251,0.30261 0.51107,0 0.99524,-0.10074 1.45252,-0.30261 0.45741,-0.20174 0.86088,-0.47072 1.21043,-0.80695 0.34968,-0.33624 0.61867,-0.73286 0.80695,-1.19026 0.1883,-0.45727 0.28244,-0.94144 0.28244,-1.45252 z m -3.4699,-5.406583 h -0.32279 c -0.86075,-0.107599 -1.56683,-0.497623 -2.11825,-1.170082 -0.55141,-0.672334 -0.78678,-1.439071 -0.70609,-2.299823 0.1614,-1.479345 0.53125,-2.911756 1.10957,-4.297027 0.57832,-1.38533 1.32474,-2.615871 2.2393,-3.691813 0.29587,-0.376573 0.61866,-0.719532 0.96834,-1.028861 0.34981,-0.309337 0.69935,-0.611941 1.04904,-0.907826 0.88765,-0.753154 1.56696,-1.425619 2.03756,-2.017382 C 124.76451,77.08701 125,76.360752 125,75.5 c 0,-0.753161 -0.15467,-1.371827 -0.464,-1.855999 -0.3092,-0.484171 -0.68584,-0.86747 -1.12973,-1.149904 -0.4439,-0.282433 -0.90789,-0.484172 -1.392,-0.605214 -0.48417,-0.121043 -0.91455,-0.181569 -1.29112,-0.181569 h -0.0807 c -0.75316,0 -1.37182,0.100873 -1.85599,0.302611 -0.48417,0.201739 -0.89438,0.484172 -1.23061,0.847301 -0.33623,0.363129 -0.61866,0.800227 -0.8473,1.311302 -0.22864,0.511068 -0.464,1.062483 -0.70608,1.654253 -0.32278,0.833849 -0.71281,1.418894 -1.17009,1.755119 -0.45727,0.336233 -0.91454,0.531245 -1.37182,0.585045 -0.51107,0.107591 -1.03559,0.06726 -1.57355,-0.121043 -0.53797,-0.21519 -0.96835,-0.52452 -1.29114,-0.927996 -0.29587,-0.349685 -0.52451,-0.800227 -0.6859,-1.35165 -0.1614,-0.551415 -0.1076,-1.230599 0.16139,-2.037552 0.16139,-0.511075 0.44383,-1.244059 0.8473,-2.19895 0.40348,-0.954899 1.01542,-1.889621 1.83582,-2.804165 0.8204,-0.914552 1.87617,-1.708053 3.16729,-2.380511 1.29113,-0.672466 2.90503,-0.995247 4.84173,-0.968343 1.29112,0.02692 2.56207,0.262256 3.81285,0.70608 1.25078,0.443824 2.37379,1.096112 3.36903,1.956864 0.99537,0.860752 1.8022,1.916509 2.42099,3.167294 0.61867,1.250776 0.92787,2.683121 0.92787,4.297027 0,1.183533 -0.16126,2.232572 -0.48417,3.147116 -0.32279,0.914544 -0.73299,1.734949 -1.23061,2.461206 -0.49762,0.726258 -1.03559,1.358376 -1.61391,1.896347 -0.57832,0.537964 -1.10956,1.022135 -1.59373,1.452515 -0.26898,0.242086 -0.52452,0.463994 -0.76674,0.665733 -0.24208,0.201869 -0.43024,0.396889 -0.56473,0.585044 -0.48418,0.591894 -0.89438,1.284399 -1.2306,2.078039 -0.33637,0.793501 -0.5447,1.620631 -0.6254,2.481376 -0.0807,0.833856 -0.42364,1.51304 -1.02873,2.037559 -0.60535,0.524389 -1.31143,0.786652 -2.11838,0.786652 z"
   inkscape:connector-curvature="0"
   style="fill:#ff00ff;fill-opacity:1;stroke:#000000;stroke-width:3;stroke-miterlimit:4;stroke-opacity:1;stroke-dasharray:none" /></svg>