<?xml version="1.0" encoding="UTF-8" standalone="no"?>
<!-- The icon can be used freely in both personal and commercial projects with no attribution required, but always appreciated. 
You may NOT sub-license, resell, rent, redistribute or otherwise transfer the icon without express written permission from iconmonstr.com -->

<svg
   xmlns:dc="http://purl.org/dc/elements/1.1/"
   xmlns:cc="http://creativecommons.org/ns#"
   xmlns:rdf="http://www.w3.org/1999/02/22-rdf-syntax-ns#"
   xmlns:svg="http://www.w3.org/2000/svg"
   xmlns="http://www.w3.org/2000/svg"
   xmlns:sodipodi="http://sodipodi.sourceforge.net/DTD/sodipodi-0.dtd"
   xmlns:inkscape="http://www.inkscape.org/namespaces/inkscape"
   version="1.1"
   x="0px"
   y="0px"
   width="512px"
   height="512px"
   viewBox="0 0 512 512"
   enable-background="new 0 0 512 512"
   xml:space="preserve"
   id="svg5058"
   inkscape:version="0.48.5 r10040"
   sodipodi:docname="marker_pothole.svg"><metadata
   id="metadata5065"><rdf:RDF><cc:Work
       rdf:about=""><dc:format>image/svg+xml</dc:format><dc:type
         rdf:resource="http://purl.org/dc/dcmitype/StillImage" /><dc:title></dc:title></cc:Work></rdf:RDF></metadata><defs
   id="defs5063" /><sodipodi:namedview
   pagecolor="#ffffff"
   bordercolor="#666666"
   borderopacity="1"
   objecttolerance="10"
   gridtolerance="10"
   guidetolerance="10"
   inkscape:pageopacity="0"
   inkscape:pageshadow="2"
   inkscape:window-width="1920"
   inkscape:window-height="1058"
   id="namedview5061"
   showgrid="true"
   inkscape:zoom="1.3037281"
   inkscape:cx="326.95474"
   inkscape:cy="298.72064"
   inkscape:window-x="-8"
   inkscape:window-y="-8"
   inkscape:window-maximized="1"
   inkscape:current-layer="svg5058"><inkscape:grid
     type="xygrid"
     id="grid5067" /></sodipodi:namedview>
<path
   id="location-4-icon"
   d="M256,50c-72.072,0-130.5,58.427-130.5,130.5c0,72.073,57.114,155.833,130.5,281.5  c73.388-125.666,130.5-209.427,130.5-281.5C386.5,108.427,328.074,50,256,50z M255.998,270.66  c-49.626,0-89.855-40.229-89.855-89.855c0-49.625,40.229-89.854,89.855-89.854c49.627,0,89.857,40.229,89.857,89.854  C345.855,230.432,305.625,270.66,255.998,270.66z" />
<path
   id="path5314"
   d="M 324.63218,168.58315 H 314.3865 l -7.88882,-51.08413 H 206.34584 l -7.88821,51.08413 h -10.24568 v 47.81761 h 8.7896 v 17.88013 h 23.90894 v -17.88013 h 71.02314 v 17.88013 h 23.90894 v -17.88013 h 8.78961 V 168.58315 z M 216.79631,128.75232 h 79.25091 l 4.63119,29.98851 h -88.51239 l 4.63029,-29.98851 z m -4.1486,73.44409 c -5.63111,0 -10.19611,-4.5653 -10.19611,-10.19611 0,-5.63139 4.565,-10.1961 10.19611,-10.1961 5.63169,0 10.19641,4.56501 10.19641,10.1961 0,5.63081 -4.565,10.19611 -10.19641,10.19611 z m 87.54871,-20.39251 c 5.63109,0 10.19611,4.56501 10.19611,10.1961 0,5.63111 -4.56502,10.19612 -10.19611,10.19612 C 294.56472,202.19612 290,197.63081 290,192 c 0,-5.63109 4.56501,-10.1961 10.19642,-10.1961 z"
   inkscape:connector-curvature="0" /></svg>