<?xml version="1.0" encoding="UTF-8" standalone="no"?>
<!-- Generator: Adobe Illustrator 16.0.0, SVG Export Plug-In . SVG Version: 6.00 Build 0)  -->

<svg
   xmlns:dc="http://purl.org/dc/elements/1.1/"
   xmlns:cc="http://creativecommons.org/ns#"
   xmlns:rdf="http://www.w3.org/1999/02/22-rdf-syntax-ns#"
   xmlns:svg="http://www.w3.org/2000/svg"
   xmlns="http://www.w3.org/2000/svg"
   xmlns:sodipodi="http://sodipodi.sourceforge.net/DTD/sodipodi-0.dtd"
   xmlns:inkscape="http://www.inkscape.org/namespaces/inkscape"
   version="1.1"
   id="Capa_1"
   x="0px"
   y="0px"
   width="27.692px"
   height="51.787px"
   viewBox="0 0 27.692 51.787"
   style="enable-background:new 0 0 27.692 51.787;"
   xml:space="preserve"
   inkscape:version="0.48.5 r10040"
   sodipodi:docname="bus.svg"><metadata
   id="metadata4086"><rdf:RDF><cc:Work
       rdf:about=""><dc:format>image/svg+xml</dc:format><dc:type
         rdf:resource="http://purl.org/dc/dcmitype/StillImage" /><dc:title></dc:title></cc:Work></rdf:RDF></metadata><defs
   id="defs4084" /><sodipodi:namedview
   pagecolor="#ffffff"
   bordercolor="#666666"
   borderopacity="1"
   objecttolerance="10"
   gridtolerance="10"
   guidetolerance="10"
   inkscape:pageopacity="0"
   inkscape:pageshadow="2"
   inkscape:window-width="1920"
   inkscape:window-height="1058"
   id="namedview4082"
   showgrid="false"
   inkscape:zoom="12.889505"
   inkscape:cx="13.282724"
   inkscape:cy="37.337763"
   inkscape:window-x="-8"
   inkscape:window-y="-8"
   inkscape:window-maximized="1"
   inkscape:current-layer="Capa_1" />
<g
   id="g4046">
	<path
   d="M13.845,0C6.199,0,0,6.198,0,13.845c0,1.494,0.244,2.929,0.68,4.274c0.981,3.461,12.292,33.668,12.292,33.668   s12.014-27.703,13.83-33.096c0.565-1.511,0.891-3.14,0.891-4.848C27.691,6.199,21.492,0,13.845,0z M13.845,24.761   c-6,0-10.865-4.867-10.865-10.865c0-6.003,4.865-10.868,10.865-10.868c6.003,0,10.866,4.865,10.866,10.868   C24.711,19.894,19.848,24.761,13.845,24.761z"
   id="path4048" />
	
</g>
<g
   id="g4052">
</g>
<g
   id="g4054">
</g>
<g
   id="g4056">
</g>
<g
   id="g4058">
</g>
<g
   id="g4060">
</g>
<g
   id="g4062">
</g>
<g
   id="g4064">
</g>
<g
   id="g4066">
</g>
<g
   id="g4068">
</g>
<g
   id="g4070">
</g>
<g
   id="g4072">
</g>
<g
   id="g4074">
</g>
<g
   id="g4076">
</g>
<g
   id="g4078">
</g>
<g
   id="g4080">
</g>
</svg>