<?xml version="1.0" encoding="UTF-8" standalone="no"?>
<!-- Generator: Adobe Illustrator 16.0.0, SVG Export Plug-In . SVG Version: 6.00 Build 0)  -->

<svg
   xmlns:dc="http://purl.org/dc/elements/1.1/"
   xmlns:cc="http://creativecommons.org/ns#"
   xmlns:rdf="http://www.w3.org/1999/02/22-rdf-syntax-ns#"
   xmlns:svg="http://www.w3.org/2000/svg"
   xmlns="http://www.w3.org/2000/svg"
   xmlns:sodipodi="http://sodipodi.sourceforge.net/DTD/sodipodi-0.dtd"
   xmlns:inkscape="http://www.inkscape.org/namespaces/inkscape"
   version="1.1"
   id="Capa_1"
   x="0px"
   y="0px"
   width="27.692px"
   height="51.787px"
   viewBox="0 0 27.692 51.787"
   style="enable-background:new 0 0 27.692 51.787;"
   xml:space="preserve"
   inkscape:version="0.48.5 r10040"
   sodipodi:docname="marker_template.svg"><metadata
   id="metadata4086"><rdf:RDF><cc:Work
       rdf:about=""><dc:format>image/svg+xml</dc:format><dc:type
         rdf:resource="http://purl.org/dc/dcmitype/StillImage" /><dc:title></dc:title></cc:Work></rdf:RDF></metadata><defs
   id="defs4084" /><sodipodi:namedview
   pagecolor="#ffffff"
   bordercolor="#666666"
   borderopacity="1"
   objecttolerance="10"
   gridtolerance="10"
   guidetolerance="10"
   inkscape:pageopacity="0"
   inkscape:pageshadow="2"
   inkscape:window-width="1920"
   inkscape:window-height="1058"
   id="namedview4082"
   showgrid="false"
   inkscape:zoom="12.889505"
   inkscape:cx="13.282724"
   inkscape:cy="24.924563"
   inkscape:window-x="-8"
   inkscape:window-y="-8"
   inkscape:window-maximized="1"
   inkscape:current-layer="Capa_1" />
<g
   id="g4046">
	<path
   d="M13.845,0C6.199,0,0,6.198,0,13.845c0,1.494,0.244,2.929,0.68,4.274c0.981,3.461,12.292,33.668,12.292,33.668   s12.014-27.703,13.83-33.096c0.565-1.511,0.891-3.14,0.891-4.848C27.691,6.199,21.492,0,13.845,0z M13.845,24.761   c-6,0-10.865-4.867-10.865-10.865c0-6.003,4.865-10.868,10.865-10.868c6.003,0,10.866,4.865,10.866,10.868   C24.711,19.894,19.848,24.761,13.845,24.761z"
   id="path4048" />
	
</g>
<g
   id="g4052">
</g>
<g
   id="g4054">
</g>
<g
   id="g4056">
</g>
<g
   id="g4058">
</g>
<g
   id="g4060">
</g>
<g
   id="g4062">
</g>
<g
   id="g4064">
</g>
<g
   id="g4066">
</g>
<g
   id="g4068">
</g>
<g
   id="g4070">
</g>
<g
   id="g4072">
</g>
<g
   id="g4074">
</g>
<g
   id="g4076">
</g>
<g
   id="g4078">
</g>
<g
   id="g4080">
</g>
<path
   id="path4585"
   d="m 17.838512,11.788998 c -0.144,0.058 -0.288,0.156 -0.476,0.251 -0.379,-0.484 -0.793,-0.938 -1.146,-1.454 0.062,-0.157 0.102,-0.345 0.193,-0.475 0.506,-0.12 1.012,-0.24 1.121,-0.756 -0.424,-0.133 -1.002,-0.025 -1.566,0 -0.557,0.026 -1.174,-0.043 -1.562,0.168 0.209,0.433 0.849,0.438 1.312,0.614 -0.025,0.251 -0.271,0.19 -0.449,0.193 -1.483,0.031 -3.130001,0 -4.499001,-0.025 0.1,-0.401 0.204,-0.801 0.335,-1.174 -0.071,-0.194 -0.191,-0.345 -0.276,-0.528 0.143,-0.426 0.894,-0.242 1.425,-0.278 -0.012,-0.129 0.028,-0.308 -0.028,-0.3909996 -0.438,0 -0.874,0 -1.313,0 -0.221,0.2079996 -0.424,0.4349996 -0.62,0.6709996 -0.173,-0.111 -0.395,-0.183 -0.645,-0.183 -0.154,0 -0.294,0.028 -0.424,0.073 -0.052,0.178 -0.089,0.359 -0.089,0.55 0,0.254 0.055,0.489 0.142,0.712 0.115,0.032 0.241,0.054 0.371,0.054 0.348,0 0.638,-0.137 0.809,-0.333 -0.034,0.126 -0.077,0.261 -0.132,0.414 -0.231,0.653 -0.563,1.483 -0.783,2.037 -0.543,-0.261 -1.067,-0.436 -1.787,-0.391 -2,0.122 -3.347,1.703 -3.299,3.576 0.049,1.795 1.439,3.409 3.495,3.409 1.981,0 3.556,-1.612 3.494,-3.604 -0.04,-1.269 -0.656,-1.96 -1.342,-2.683 0.052,-0.115 0.092,-0.242 0.14,-0.362 1.172,1.287 2.319,2.599 3.463,3.913 -0.11,0.383 0.183001,0.571 0.448001,0.67 0.062,0.304 0.133,0.595 0.221,0.867 -0.188,-0.05 -0.225,0.056 -0.192,0.226 0.211,0.053 0.603,0.039 0.754,-0.058 0.078,-0.233 -0.144,-0.174 -0.25,-0.226 -0.084,-0.26 -0.106,-0.58 -0.192,-0.838 0.125,-0.094 0.211,-0.232 0.33,-0.337 0.35,-0.045 0.655,-0.127 1.008,-0.168 0.521,1.473 1.609,2.6 3.385,2.6 1.955,0 3.502,-1.555 3.488,-3.521 -0.013,-2.352 -2.37,-4.172 -4.864,-3.213 z m -7.683001,1.509 c 0.357,0.447 0.679,1.044 0.614,1.929 -0.104,1.453 -1.28,2.565 -2.711,2.627 -1.524,0.062 -3.068,-1.182 -2.934,-3.047 0.097,-1.381 1.156,-2.472 2.513,-2.601 0.73,-0.066 1.263,0.116 1.705,0.393 -0.128,0.649 -0.721,1.573 -1.313,1.956 -0.181,0.117 -0.387,0.127 -0.418,0.336 -0.093,0.576 0.772,0.574 0.754,0.026 0.655,-0.471 1.156,-1.096 1.481,-1.899 0.108,-0.054 0.213,0.163 0.309,0.28 z m 3.997001,1.537 c -0.045,-0.077 -0.053,-0.19 -0.057,-0.307 -0.042,-0.128 0.182,0.016 0.141,-0.111 0.021,-0.086 -0.026,-0.103 -0.026,-0.168 -0.16,-0.063 -0.439,-0.01 -0.645001,-0.024 -0.02,0.16 0.019,0.263 0.197001,0.224 -0.016,0.153 0.016,0.262 0.027,0.392 -0.08,0.022 -0.154001,-0.093 -0.196001,-0.14 -1.019,-1.123 -2.088,-2.387 -3.103,-3.526 0.026,-0.085 0.033,-0.191 0.111,-0.223 1.611,0 3.223001,0 4.833001,0 -0.428,1.292 -0.848,2.599 -1.282,3.883 z m 1.591,0.502 c -0.362,0.05 -0.737,0.085 -1.118,0.113 0.467,-1.379 0.911,-2.774 1.368,-4.164 0.312,0.328 0.574,0.711 0.896,1.034 -0.698,0.676 -1.269,1.616 -1.146,3.017 z m 1.509,-2.459 c 0.549,0.602 1.021,1.271 1.508,1.932 -0.778,0.14 -1.58,0.265 -2.375,0.39 0.001,-1.061 0.283,-1.842 0.867,-2.322 z m 1.871,4.976 c -1.312,-0.039 -2.226,-0.83 -2.628,-2.067 0.755,-0.047 1.763,-0.42 2.459,-0.476 0.322,-0.026 0.664,0.05 0.646,-0.362 -0.014,-0.254 -0.245,-0.265 -0.42,-0.42 -0.25,-0.226 -0.459,-0.65 -0.726,-1.006 -0.252,-0.335 -0.545,-0.66 -0.729,-0.979 0.492,-0.218 0.996,-0.389 1.732,-0.337 1.484,0.106 2.688,1.403 2.568,3.021 -0.107,1.561 -1.454,2.667 -2.902,2.626 z"
   inkscape:connector-curvature="0" /></svg>