<?xml version="1.0" encoding="UTF-8" standalone="no"?>
<!-- The icon can be used freely in both personal and commercial projects with no attribution required, but always appreciated. 
You may NOT sub-license, resell, rent, redistribute or otherwise transfer the icon without express written permission from iconmonstr.com -->

<svg
   xmlns:dc="http://purl.org/dc/elements/1.1/"
   xmlns:cc="http://creativecommons.org/ns#"
   xmlns:rdf="http://www.w3.org/1999/02/22-rdf-syntax-ns#"
   xmlns:svg="http://www.w3.org/2000/svg"
   xmlns="http://www.w3.org/2000/svg"
   xmlns:sodipodi="http://sodipodi.sourceforge.net/DTD/sodipodi-0.dtd"
   xmlns:inkscape="http://www.inkscape.org/namespaces/inkscape"
   version="1.1"
   x="0px"
   y="0px"
   width="512px"
   height="512px"
   viewBox="0 0 512 512"
   enable-background="new 0 0 512 512"
   xml:space="preserve"
   id="svg5058"
   inkscape:version="0.48.5 r10040"
   sodipodi:docname="marker_light.svg"><metadata
   id="metadata5065"><rdf:RDF><cc:Work
       rdf:about=""><dc:format>image/svg+xml</dc:format><dc:type
         rdf:resource="http://purl.org/dc/dcmitype/StillImage" /><dc:title></dc:title></cc:Work></rdf:RDF></metadata><defs
   id="defs5063" /><sodipodi:namedview
   pagecolor="#ffffff"
   bordercolor="#666666"
   borderopacity="1"
   objecttolerance="10"
   gridtolerance="10"
   guidetolerance="10"
   inkscape:pageopacity="0"
   inkscape:pageshadow="2"
   inkscape:window-width="1920"
   inkscape:window-height="1058"
   id="namedview5061"
   showgrid="true"
   inkscape:zoom="1.3037281"
   inkscape:cx="326.95474"
   inkscape:cy="298.72064"
   inkscape:window-x="-8"
   inkscape:window-y="-8"
   inkscape:window-maximized="1"
   inkscape:current-layer="svg5058"><inkscape:grid
     type="xygrid"
     id="grid5067" /></sodipodi:namedview>
<path
   id="location-4-icon"
   d="M256,50c-72.072,0-130.5,58.427-130.5,130.5c0,72.073,57.114,155.833,130.5,281.5  c73.388-125.666,130.5-209.427,130.5-281.5C386.5,108.427,328.074,50,256,50z M255.998,270.66  c-49.626,0-89.855-40.229-89.855-89.855c0-49.625,40.229-89.854,89.855-89.854c49.627,0,89.857,40.229,89.857,89.854  C345.855,230.432,305.625,270.66,255.998,270.66z" />
<g
   id="g5601"
   transform="matrix(8.7612407,0,0,8.7612407,133.18447,63.458501)"><g
     id="g5559">
	
	<path
   id="path5563"
   d="M 18.464,6.326 H 9.227 c -0.948,0 -1.72,0.835 -1.72,1.866 v 10.039 c 0,0.685 0.341,1.28 0.848,1.604 v 1.073 c 0,0.353 0.567,0.636 1.271,0.636 0.701,0 1.271,-0.283 1.271,-0.636 v -0.812 h 1.556 v -0.001 h 3.217 v 0.001 h 1.195 v 0.812 c 0,0.353 0.568,0.636 1.271,0.636 0.703,0 1.271,-0.283 1.271,-0.636 v -1.116 c 0.471,-0.334 0.78,-0.907 0.78,-1.562 V 8.191 C 20.185,7.162 19.414,6.326 18.464,6.326 z m -7.291,0.795 h 5.344 V 7.64 H 11.173 V 7.121 z m 1.071,9.94 H 8.871 v -1.248 h 3.373 v 1.248 z m 3.424,2.88 h -3.217 v -0.99 h 3.217 v 0.99 z m 3.322,-2.88 h -3.374 v -1.248 h 3.374 v 1.248 z m 0.148,-4.288 c 0,0.127 -0.224,0.23 -0.5,0.23 H 9.053 c -0.275,0 -0.499,-0.104 -0.499,-0.23 V 8.339 c 0,-0.128 0.224,-0.232 0.499,-0.232 h 9.585 c 0.276,0 0.5,0.104 0.5,0.232 v 4.434 z"
   inkscape:connector-curvature="0" />
</g><g
     id="g5565">
</g><g
     id="g5567">
</g><g
     id="g5569">
</g><g
     id="g5571">
</g><g
     id="g5573">
</g><g
     id="g5575">
</g><g
     id="g5577">
</g><g
     id="g5579">
</g><g
     id="g5581">
</g><g
     id="g5583">
</g><g
     id="g5585">
</g><g
     id="g5587">
</g><g
     id="g5589">
</g><g
     id="g5591">
</g><g
     id="g5593">
</g></g></svg>