<?xml version="1.0" encoding="UTF-8" standalone="no"?>
<!-- The icon can be used freely in both personal and commercial projects with no attribution required, but always appreciated. 
You may NOT sub-license, resell, rent, redistribute or otherwise transfer the icon without express written permission from iconmonstr.com -->

<svg
   xmlns:dc="http://purl.org/dc/elements/1.1/"
   xmlns:cc="http://creativecommons.org/ns#"
   xmlns:rdf="http://www.w3.org/1999/02/22-rdf-syntax-ns#"
   xmlns:svg="http://www.w3.org/2000/svg"
   xmlns="http://www.w3.org/2000/svg"
   xmlns:sodipodi="http://sodipodi.sourceforge.net/DTD/sodipodi-0.dtd"
   xmlns:inkscape="http://www.inkscape.org/namespaces/inkscape"
   version="1.1"
   x="0px"
   y="0px"
   width="200"
   height="302.25"
   viewBox="0 0 200 302.25"
   enable-background="new 0 0 512 512"
   xml:space="preserve"
   id="svg5058"
   inkscape:version="0.48.5 r10040"
   sodipodi:docname="marker_pothole_sized_new.svg"><metadata
   id="metadata5065"><rdf:RDF><cc:Work
       rdf:about=""><dc:format>image/svg+xml</dc:format><dc:type
         rdf:resource="http://purl.org/dc/dcmitype/StillImage" /><dc:title></dc:title></cc:Work></rdf:RDF></metadata><defs
   id="defs5063" /><sodipodi:namedview
   pagecolor="#ffffff"
   bordercolor="#666666"
   borderopacity="1"
   objecttolerance="10"
   gridtolerance="10"
   guidetolerance="10"
   inkscape:pageopacity="0"
   inkscape:pageshadow="2"
   inkscape:window-width="1366"
   inkscape:window-height="745"
   id="namedview5061"
   showgrid="true"
   inkscape:zoom="1.3037281"
   inkscape:cx="84.297888"
   inkscape:cy="253.47064"
   inkscape:window-x="-8"
   inkscape:window-y="424"
   inkscape:window-maximized="1"
   inkscape:current-layer="svg5058"
   fit-margin-top="0"
   fit-margin-left="0"
   fit-margin-right="0"
   fit-margin-bottom="0"><inkscape:grid
     type="xygrid"
     id="grid5067"
     empspacing="5"
     visible="true"
     enabled="true"
     snapvisiblegridlinesonly="true"
     originx="-123px"
     originy="-45.25px" /></sodipodi:namedview>
<path
   id="location-4-icon"
   d="M 100,2.4489544 C 46.124911,2.4489544 2.4489588,44.298297 2.4489588,95.921822 2.4489588,147.54535 45.142679,207.53989 100,297.55104 154.85882,207.5406 197.55104,147.54535 197.55104,95.921822 197.55104,44.298297 153.87658,2.4489544 100,2.4489544 z M 99.998,160.50048 c -37.09631,0 -67.168194,-28.81471 -67.168194,-64.360193 0,-35.544762 30.071884,-64.359474 67.168194,-64.359474 37.09706,0 67.16968,28.814712 67.16968,64.359474 0,35.546193 -30.07262,64.360193 -67.16968,64.360193 z"
   inkscape:connector-curvature="0"
   style="fill:#ffaa00;fill-opacity:1;stroke:#000000;stroke-width:4.89791726999999980;stroke-miterlimit:4;stroke-opacity:1;stroke-dasharray:none" />
<g
   id="g5286"
   transform="matrix(1.1354463,0,0,1.0879783,47.669388,43.331385)"
   style="fill:#ffaa00;fill-opacity:1;stroke:#000000;stroke-width:4.40674639000000030;stroke-miterlimit:4;stroke-opacity:1;stroke-dasharray:none"><path
     id="path5248"
     d="m 47.999,55.393 c 11.951,0 21.955,-4.061 22.561,-9.362 C 68.783,41.046 66.845,35.61 64.941,30.267 63.619,34.078 56.318,36.765 48,36.765 c -8.316,0 -15.617,-2.688 -16.941,-6.497 -1.904,5.342 -3.84,10.777 -5.617,15.763 0.604,5.301 10.606,9.362 22.557,9.362 z m 0,-33.526 c 5.617,0 10.836,-1.739 12.363,-4.439 C 58.257,11.515 56.448,6.442 55.305,3.241 54.546,1.108 51.104,0 47.999,0 c -3.105,0 -6.547,1.108 -7.307,3.241 -1.141,3.201 -2.949,8.274 -5.057,14.187 1.528,2.7 6.749,4.439 12.364,4.439 z m 43.904,38.465 -18.777,-7.563 2.162,6.033 c -0.109,6.394 -12.521,11.489 -27.289,11.489 -14.766,0 -27.18,-5.095 -27.287,-11.489 l 2.16,-6.033 -18.775,7.563 c -5.264,2.121 -5.484,6.049 -0.49,8.726 l 35.312,18.935 c 4.994,2.677 13.168,2.677 18.162,0 L 92.393,69.058 c 4.995,-2.677 4.774,-6.605 -0.49,-8.726 z"
     inkscape:connector-curvature="0"
     style="fill:#ffaa00;fill-opacity:1;stroke:#000000;stroke-width:4.40674639000000030;stroke-miterlimit:4;stroke-opacity:1;stroke-dasharray:none" /><g
     id="g5250"
     style="fill:#ffaa00;fill-opacity:1;stroke:#000000;stroke-width:4.40674639000000030;stroke-miterlimit:4;stroke-opacity:1;stroke-dasharray:none">
</g><g
     id="g5252"
     style="fill:#ffaa00;fill-opacity:1;stroke:#000000;stroke-width:4.40674639000000030;stroke-miterlimit:4;stroke-opacity:1;stroke-dasharray:none">
</g><g
     id="g5254"
     style="fill:#ffaa00;fill-opacity:1;stroke:#000000;stroke-width:4.40674639000000030;stroke-miterlimit:4;stroke-opacity:1;stroke-dasharray:none">
</g><g
     id="g5256"
     style="fill:#ffaa00;fill-opacity:1;stroke:#000000;stroke-width:4.40674639000000030;stroke-miterlimit:4;stroke-opacity:1;stroke-dasharray:none">
</g><g
     id="g5258"
     style="fill:#ffaa00;fill-opacity:1;stroke:#000000;stroke-width:4.40674639000000030;stroke-miterlimit:4;stroke-opacity:1;stroke-dasharray:none">
</g><g
     id="g5260"
     style="fill:#ffaa00;fill-opacity:1;stroke:#000000;stroke-width:4.40674639000000030;stroke-miterlimit:4;stroke-opacity:1;stroke-dasharray:none">
</g><g
     id="g5262"
     style="fill:#ffaa00;fill-opacity:1;stroke:#000000;stroke-width:4.40674639000000030;stroke-miterlimit:4;stroke-opacity:1;stroke-dasharray:none">
</g><g
     id="g5264"
     style="fill:#ffaa00;fill-opacity:1;stroke:#000000;stroke-width:4.40674639000000030;stroke-miterlimit:4;stroke-opacity:1;stroke-dasharray:none">
</g><g
     id="g5266"
     style="fill:#ffaa00;fill-opacity:1;stroke:#000000;stroke-width:4.40674639000000030;stroke-miterlimit:4;stroke-opacity:1;stroke-dasharray:none">
</g><g
     id="g5268"
     style="fill:#ffaa00;fill-opacity:1;stroke:#000000;stroke-width:4.40674639000000030;stroke-miterlimit:4;stroke-opacity:1;stroke-dasharray:none">
</g><g
     id="g5270"
     style="fill:#ffaa00;fill-opacity:1;stroke:#000000;stroke-width:4.40674639000000030;stroke-miterlimit:4;stroke-opacity:1;stroke-dasharray:none">
</g><g
     id="g5272"
     style="fill:#ffaa00;fill-opacity:1;stroke:#000000;stroke-width:4.40674639000000030;stroke-miterlimit:4;stroke-opacity:1;stroke-dasharray:none">
</g><g
     id="g5274"
     style="fill:#ffaa00;fill-opacity:1;stroke:#000000;stroke-width:4.40674639000000030;stroke-miterlimit:4;stroke-opacity:1;stroke-dasharray:none">
</g><g
     id="g5276"
     style="fill:#ffaa00;fill-opacity:1;stroke:#000000;stroke-width:4.40674639000000030;stroke-miterlimit:4;stroke-opacity:1;stroke-dasharray:none">
</g><g
     id="g5278"
     style="fill:#ffaa00;fill-opacity:1;stroke:#000000;stroke-width:4.40674639000000030;stroke-miterlimit:4;stroke-opacity:1;stroke-dasharray:none">
</g></g><g
   id="g7926"
   transform="translate(-455.09,-156.702)">
	<path
   id="path7928"
   d="m 116.453,38.072 v 220.005 215.712 h 46.184 V 258.077 h 36.32 V 166.985 C 198.958,35.495 116.453,38.072 116.453,38.072 z"
   inkscape:connector-curvature="0" />
	<path
   id="path7930"
   d="M 366.327,38.07 V 164.899 H 342.263 V 38.07 H 309.604 V 164.899 H 285.539 V 38.07 H 256.32 c 0,111.577 0,111.577 0,186.132 h 43.458 V 473.931 H 352.09 V 224.202 h 43.458 V 38.07 h -29.221 z"
   inkscape:connector-curvature="0" />
</g><path
   id="path8518"
   d="m 411.394,364.492 c 0,-7.752 -1.43,-15.096 -4.284,-22.03 -2.856,-6.938 -6.938,-12.954 -12.24,-18.056 -5.304,-5.1 -11.424,-9.18 -18.36,-12.238 -6.936,-3.062 -14.28,-4.592 -22.032,-4.592 -7.752,0 -15.096,1.53 -22.032,4.592 -6.936,3.06 -12.954,7.14 -18.054,12.238 -5.1,5.102 -9.078,11.118 -11.934,18.056 -2.856,6.936 -4.284,14.278 -4.284,22.03 0,7.752 1.428,15.098 4.284,22.032 2.856,6.938 6.834,12.954 11.934,18.054 5.1,5.102 11.118,9.182 18.054,12.24 6.936,3.062 14.28,4.59 22.032,4.59 7.752,0 15.096,-1.528 22.032,-4.59 6.938,-3.06 13.058,-7.14 18.36,-12.24 5.304,-5.1 9.384,-11.116 12.24,-18.054 2.856,-6.936 4.284,-14.28 4.284,-22.032 z m -52.632,-82.008 h -4.896 c -13.056,-1.632 -23.766,-7.548 -32.13,-17.748 -8.364,-10.198 -11.934,-21.828 -10.71,-34.884 2.448,-22.439 8.058,-44.166 16.83,-65.178 8.772,-21.013 20.094,-39.678 33.966,-55.998 4.488,-5.712 9.384,-10.914001 14.688,-15.606001 5.306,-4.692 10.608,-9.282 15.912,-13.77 C 405.886,67.876 416.19,57.676 423.328,48.7 c 7.138,-8.976 10.71,-19.992 10.71,-33.048 0,-11.424 -2.346,-20.808 -7.038,-28.152 -4.69,-7.344 -10.403,-13.158 -17.136,-17.442 -6.733,-4.284 -13.771,-7.344 -21.114,-9.18 -7.344,-1.836 -13.872,-2.754 -19.584,-2.754 h -1.224 c -11.424,0 -20.808,1.53 -28.152,4.59 -7.344,3.06 -13.566,7.344 -18.666,12.852 -5.1,5.508 -9.384,12.138 -12.852,19.89 -3.468,7.752 -7.038,16.116 -10.71,25.092 -4.896,12.648 -10.812,21.522 -17.748,26.622 -6.936,5.1 -13.872,8.058 -20.808,8.874 -7.752,1.632 -15.708,1.02 -23.868,-1.836 -8.16,-3.264 -14.688,-7.956 -19.584,-14.076 -4.488,-5.304 -7.956,-12.138 -10.404,-20.502 -2.448,-8.364 -1.632,-18.666 2.448,-30.906 2.448,-7.752 6.732,-18.87 12.852,-33.354 6.12,-14.484 15.402,-28.662 27.846,-42.534 12.444,-13.872 28.458,-25.908 48.042,-36.108 19.584,-10.2 44.064,-15.096 73.44,-14.688 19.584,0.408 38.862,3.978 57.834,10.71 18.972,6.732 36.006,16.626 51.102,29.682 15.098,13.056 27.336,29.07 36.722,48.042 9.384,18.972 14.074,40.698 14.074,65.178 0,17.952 -2.446,33.864 -7.344,47.736 -4.896,13.872 -11.118,26.315999 -18.666,37.332 -7.548,11.016 -15.708,20.604 -24.48,28.764 -8.772,8.16 -16.83,15.504 -24.174,22.032 -4.08,3.672 -7.956,7.038 -11.63,10.098 -3.672,3.062 -6.526,6.02 -8.566,8.874 -7.344,8.978 -13.566,19.482 -18.666,31.52 -5.102,12.036 -8.262,24.582 -9.486,37.638 -1.224,12.648 -6.426,22.95 -15.604,30.906 -9.182,7.954 -19.892,11.932 -32.132,11.932 z"
   inkscape:connector-curvature="0" /></svg>