<?xml version="1.0" encoding="utf-8"?>
<!-- Generator: Adobe Illustrator 18.0.0, SVG Export Plug-In . SVG Version: 6.00 Build 0)  -->
<!DOCTYPE svg PUBLIC "-//W3C//DTD SVG 1.1//EN" "http://www.w3.org/Graphics/SVG/1.1/DTD/svg11.dtd">
<svg version="1.1" id="Capa_1" xmlns="http://www.w3.org/2000/svg" xmlns:xlink="http://www.w3.org/1999/xlink" x="0px" y="0px"
	 viewBox="0 0 44.1 70" enable-background="new 0 0 44.1 70" xml:space="preserve">
<g>
	<path fill="#231F20" d="M29,22.6c-2.6,0-4.8,2.1-4.8,4.8s2.1,4.8,4.8,4.8c2.6,0,4.8-2.1,4.8-4.8S31.6,22.6,29,22.6z M29,31.3
		c-2.2,0-3.9-1.7-3.9-3.9c0-2.2,1.7-3.9,3.9-3.9c2.1,0,3.9,1.7,3.9,3.9C32.9,29.6,31.2,31.3,29,31.3z"/>
	<path fill="#231F20" d="M15.1,22.6c-2.6,0-4.8,2.1-4.8,4.8s2.1,4.8,4.8,4.8c2.6,0,4.8-2.1,4.8-4.8S17.7,22.6,15.1,22.6z M15.1,31.3
		c-2.2,0-3.9-1.7-3.9-3.9c0-2.2,1.7-3.9,3.9-3.9c2.1,0,3.9,1.7,3.9,3.9C19,29.6,17.3,31.3,15.1,31.3z"/>
</g>
<path fill="#231F20" d="M23.6,15.1c1.3,0,2.3-1,2.3-2.3c0-1.3-1-2.3-2.3-2.3c-1.3,0-2.3,1-2.3,2.3C21.3,14.1,22.3,15.1,23.6,15.1z"
	/>
<polygon fill="#231F20" points="21.6,25.5 21.6,29.4 23.8,29.4 23.8,24 20,21.1 22,18.3 27.6,21.2 28.4,19.6 23,16.8 23.6,16 
	21.2,14.3 16.2,21.4 18.2,22.9 "/>
<path fill="#231F20" d="M24.1,29.6h-2.1c-0.4,0-0.7,0.3-0.7,0.7c0,0.4,0.3,0.6,0.7,0.6h2.1c0.4,0,0.6-0.3,0.6-0.6
	C24.7,29.9,24.5,29.6,24.1,29.6z"/>
<path fill="#231F20" d="M22.1,1.9c-11.5,0-20.9,9.4-20.9,20.9c0,11.5,20.9,45.4,20.9,45.4S43,34.3,43,22.7
	C43,11.2,33.6,1.9,22.1,1.9z M22.1,39.1c-9.4,0-17-7.6-17-17c0-9.4,7.6-17,17-17c9.4,0,17,7.6,17,17C39,31.5,31.4,39.1,22.1,39.1z"
	/>
</svg>
