<?xml version="1.0" encoding="utf-8"?>
<!-- Generator: Adobe Illustrator 17.0.0, SVG Export Plug-In . SVG Version: 6.00 Build 0)  -->
<!DOCTYPE svg PUBLIC "-//W3C//DTD SVG 1.1//EN" "http://www.w3.org/Graphics/SVG/1.1/DTD/svg11.dtd">
<svg version="1.1" id="Capa_1" xmlns="http://www.w3.org/2000/svg" xmlns:xlink="http://www.w3.org/1999/xlink" x="0px" y="0px"
	 width="44.128px" height="70.035px" viewBox="0 0 44.128 70.035" enable-background="new 0 0 44.128 70.035" xml:space="preserve">
<path fill="#231F20" d="M20.687,17.227h2.77l-0.383,7.943h-2.001L20.687,17.227z M22.071,26.041c-0.927,0-1.574,0.651-1.574,1.597
	c0,0.908,0.628,1.59,1.542,1.59h0.031c0.949,0,1.561-0.683,1.561-1.59C23.615,26.692,23.003,26.041,22.071,26.041z M42.731,22.884
	c0,11.414-20.667,44.933-20.667,44.933S1.397,34.299,1.397,22.884c0-11.411,9.254-20.667,20.667-20.667
	C33.475,2.218,42.731,11.473,42.731,22.884z M38.05,22.884c0-8.818-7.17-15.989-15.986-15.989c-8.817,0-15.991,7.171-15.991,15.989
	c0,8.812,7.174,15.991,15.991,15.991C30.88,38.875,38.05,31.697,38.05,22.884z M34.275,31.863c-0.287,0.477-0.803,0.766-1.358,0.766
	H11.212c-0.573,0-1.102-0.305-1.382-0.805c-0.282-0.497-0.276-1.107,0.018-1.597l10.888-19.319c0.288-0.483,0.806-0.776,1.367-0.776
	l0.038,0.002c0.576,0.01,1.1,0.34,1.366,0.849l10.817,19.321C34.582,30.795,34.562,31.388,34.275,31.863z M32.918,31.042
	L22.102,11.721l-10.89,19.321H32.918z"/>
</svg>
