<?xml version="1.0" encoding="utf-8"?>
<!-- Generator: Adobe Illustrator 16.0.0, SVG Export Plug-In . SVG Version: 6.00 Build 0)  -->
<!DOCTYPE svg PUBLIC "-//W3C//DTD SVG 1.1//EN" "http://www.w3.org/Graphics/SVG/1.1/DTD/svg11.dtd">
<svg version="1.1" id="Layer_1" xmlns="http://www.w3.org/2000/svg" xmlns:xlink="http://www.w3.org/1999/xlink" x="0px" y="0px"
	 width="48px" height="48px" viewBox="0 0 48 48" enable-background="new 0 0 48 48" xml:space="preserve">
<g>
	<path d="M43.486,26.949l-3.518-0.603v-1.578c0-3.862-2.727-6.767-6.343-6.767H16.019c-3.736,0-6.752,3.031-6.752,6.767v1.598
		l-3.581,0.587c-0.443,0.073-0.792,0.457-0.792,0.906v0.899c0,0.507,0.434,0.908,0.94,0.908h0.977
		c-0.239,0.405-0.378,0.861-0.378,1.353v7.663c0,1.204,0.81,2.213,1.943,2.492v4.894C8.376,46.573,8.789,47,9.295,47h4.223
		c0.507,0,0.934-0.427,0.934-0.934v-4.817h20.738v4.817c0,0.507,0.427,0.934,0.934,0.934h4.223c0.508,0,0.918-0.427,0.918-0.934
		v-4.999c0.972-0.377,1.62-1.303,1.62-2.387v-7.663c0-0.492-0.138-0.948-0.378-1.353h0.814c0.507,0,0.94-0.4,0.94-0.908v-0.904
		C44.261,27.407,43.927,27.024,43.486,26.949z M12.67,24.768c0-1.827,1.521-3.284,3.349-3.284h5.17c-0.007,0-0.013,0.04-0.013,0.076
		v1.524c0,0.288,0.235,0.506,0.523,0.506h5.377c0.288,0,0.499-0.218,0.499-0.506V21.56c0-0.036,0.019-0.076,0.013-0.076h6.038
		c1.98,0,2.858,1.688,2.858,3.284v2.71H12.67V24.768z M14.396,36.97c-1.014,0-1.837-0.823-1.837-1.838s0.823-1.838,1.837-1.838
		c1.016,0,1.839,0.823,1.839,1.838S15.412,36.97,14.396,36.97z M29.928,36.875H19.425c-0.957,0-1.731-0.786-1.731-1.742
		c0-0.955,0.774-1.741,1.731-1.741h10.503c0.955,0,1.731,0.786,1.731,1.741C31.659,36.089,30.883,36.875,29.928,36.875z
		 M33.117,35.131c0-1.015,0.823-1.838,1.838-1.838c1.014,0,1.838,0.823,1.838,1.838s-0.824,1.838-1.838,1.838
		C33.94,36.97,33.117,36.146,33.117,35.131z"/>
	<path d="M35.098,1.075c-2.646,0-4.945,1.529-6.118,3.721h-1.646c-0.178,0-0.352-0.013-0.501,0.083L24.913,6.09
		c-0.235,0.153-0.539,0.138-0.775-0.015l-1.78-1.155c-0.233-0.15-0.531-0.157-0.768-0.011l-1.871,1.153
		c-0.246,0.153-0.559,0.155-0.807,0.004l-1.914-1.149c-0.258-0.154-0.578-0.152-0.833,0.003l-1.269,0.782
		c-0.213,0.131-0.484,0.126-0.693-0.014l-1.334-0.826c-0.13-0.086-0.283-0.068-0.439-0.068H10.53c-1.886,0-3.414,1.375-3.414,3.262
		c0,1.742,1.411,3,3.151,3h18.712c1.173,2.192,3.473,3.746,6.118,3.746c3.832,0,6.94-3.03,6.94-6.864
		C42.038,4.106,38.93,1.075,35.098,1.075z M36.978,10.196c-1.24,0-2.244-1.005-2.244-2.245c0-1.239,1.004-2.244,2.244-2.244
		s2.244,1.004,2.244,2.244C39.222,9.191,38.218,10.196,36.978,10.196z"/>
</g>
</svg>
