<?xml version="1.0" encoding="utf-8"?>
<!-- Generator: Adobe Illustrator 16.0.0, SVG Export Plug-In . SVG Version: 6.00 Build 0)  -->
<!DOCTYPE svg PUBLIC "-//W3C//DTD SVG 1.1//EN" "http://www.w3.org/Graphics/SVG/1.1/DTD/svg11.dtd">
<svg version="1.1" id="Layer_1" xmlns="http://www.w3.org/2000/svg" xmlns:xlink="http://www.w3.org/1999/xlink" x="0px" y="0px"
	 width="126px" height="126px" viewBox="0 0 126 126" enable-background="new 0 0 126 126" xml:space="preserve">
<g>
	<circle cx="65.166" cy="18.242" r="2.448"/>
	<path d="M67.047,36.818c0.131,0.576,0.644,0.968,1.211,0.968c0.09,0,0.182-0.01,0.274-0.03c0.669-0.151,1.088-0.816,0.937-1.484
		c-0.529-2.348-0.397-5.058,0.327-7.318c0.6-0.438,1.011-1.13,0.96-1.897c-0.103-1.533-0.287-3.059-0.478-4.584
		c-0.161-1.291-0.964-2.387-2.388-2.387c-1.179,0-2.549,1.093-2.387,2.387c0.094,0.759,0.188,1.518,0.27,2.277
		c0.216-0.521,0.402-1.037,0.557-1.507c0.073,0.101,0.153,0.195,0.24,0.284c-0.517,1.593-1.396,3.71-2.577,4.912
		c-0.424,0.431-0.419,1.125,0.014,1.55c0.213,0.209,0.491,0.313,0.768,0.313c0.283,0,0.567-0.109,0.782-0.328
		c1.06-1.077,1.864-2.592,2.444-3.989c-0.006,0.415-0.048,0.831-0.119,1c-0.233,0.542-0.434,1.111-0.6,1.699
		c-0.079,0.118-0.155,0.406-0.114,0.432C66.543,31.582,66.485,34.33,67.047,36.818z"/>
	<path d="M66.791,38.504v78.541h41.187V38.504H66.791z M83.963,103.101H73.834V92.97h10.129V103.101z M83.963,88.092H73.834V77.961
		h10.129V88.092z M83.963,73.084H73.834v-10.13h10.129V73.084z M83.963,58.076H73.834V47.945h10.129V58.076z M98.972,103.101H88.841
		V92.97h10.131V103.101z M98.972,88.092H88.841V77.961h10.131V88.092z M98.972,73.084H88.841v-10.13h10.131V73.084z M98.972,58.076
		H88.841V47.945h10.131V58.076z"/>
	<circle cx="28.008" cy="94.486" r="2.448"/>
	<path d="M30.145,100.375c0.087-0.089,0.168-0.184,0.24-0.284c0.154,0.47,0.341,0.985,0.558,1.507
		c0.082-0.76,0.175-1.519,0.27-2.277c0.161-1.294-1.208-2.387-2.387-2.387c-1.425,0-2.227,1.096-2.388,2.387
		c-0.191,1.525-0.375,3.051-0.479,4.584c-0.051,0.768,0.361,1.459,0.961,1.897c0.724,2.261,0.856,4.971,0.326,7.318
		c-0.151,0.668,0.269,1.333,0.938,1.484c0.092,0.021,0.184,0.03,0.274,0.03c0.567,0,1.079-0.392,1.21-0.968
		c0.562-2.488,0.504-5.236-0.12-7.703c0.04-0.025-0.036-0.313-0.114-0.432c-0.167-0.588-0.367-1.157-0.6-1.699
		c-0.072-0.169-0.114-0.585-0.12-1c0.58,1.397,1.386,2.912,2.444,3.989c0.215,0.219,0.499,0.328,0.782,0.328
		c0.277,0,0.555-0.104,0.768-0.313c0.433-0.425,0.438-1.119,0.015-1.55C31.542,104.085,30.662,101.968,30.145,100.375z"/>
	<circle cx="20.471" cy="92.869" r="2.448"/>
	<path d="M22.607,98.758c0.086-0.089,0.168-0.184,0.24-0.284c0.154,0.47,0.34,0.985,0.557,1.507c0.082-0.76,0.176-1.519,0.27-2.277
		c0.162-1.294-1.207-2.387-2.387-2.387c-1.424,0-2.227,1.096-2.387,2.387c-0.191,1.525-0.375,3.051-0.479,4.584
		c-0.051,0.768,0.361,1.459,0.961,1.897c0.723,2.261,0.855,4.971,0.326,7.318c-0.152,0.668,0.268,1.333,0.938,1.484
		c0.092,0.021,0.184,0.03,0.273,0.03c0.568,0,1.08-0.392,1.211-0.968c0.561-2.488,0.504-5.236-0.121-7.703
		c0.041-0.025-0.035-0.313-0.113-0.432c-0.168-0.588-0.367-1.157-0.6-1.699c-0.072-0.169-0.115-0.585-0.121-1
		c0.58,1.397,1.387,2.912,2.445,3.989c0.215,0.219,0.498,0.328,0.781,0.328c0.277,0,0.555-0.104,0.768-0.313
		c0.434-0.425,0.439-1.119,0.016-1.55C24.004,102.468,23.125,100.351,22.607,98.758z"/>
	<path d="M46.558,92.65c0.083-0.502-0.23-0.963-0.704-1.106c0.027-0.066,0.033-0.141-0.003-0.209l-1.527-2.869
		c-0.065-0.122-0.216-0.168-0.338-0.104l-1.472,0.783c-0.122,0.065-0.168,0.217-0.103,0.339l0.198,0.373
		c-0.364-0.071-0.761,0.046-1.009,0.457c-0.361,0.598-0.703,1.205-1.006,1.825c-0.212-0.06-0.431-0.102-0.661-0.102
		c-1.353,0-2.448,1.096-2.448,2.447c0,1.136,0.776,2.082,1.825,2.358c-0.537,0.549-0.733,1.382-0.43,2.141
		c0.348,0.87,0.639,1.46,0.873,1.935c0.425,0.859,0.567,1.149,0.654,2.456c0.007,0.097,0.027,0.188,0.046,0.279
		c-0.01,0.039-0.033,0.071-0.039,0.112c-0.167,1.165-0.417,2.788-0.666,4.41c-0.251,1.628-0.501,3.255-0.668,4.424
		c-0.078,0.547,0.302,1.053,0.849,1.131c0.048,0.007,0.096,0.011,0.143,0.011c0.489,0,0.917-0.36,0.988-0.858
		c0.167-1.163,0.416-2.783,0.665-4.402c0.128-0.833,0.256-1.664,0.373-2.437c0.278,1.039,0.466,2.297,0.637,3.458
		c0.182,1.234,0.354,2.4,0.624,3.347c0.126,0.439,0.526,0.726,0.961,0.726c0.091,0,0.184-0.013,0.275-0.039
		c0.531-0.151,0.839-0.705,0.687-1.236c-0.233-0.818-0.396-1.921-0.568-3.088c-0.233-1.588-0.476-3.214-0.942-4.523
		c0.418-0.396,0.669-0.961,0.628-1.579c-0.133-1.998-0.489-2.807-1.059-3.961c-0.056-0.111-0.112-0.228-0.172-0.35
		c0.241-0.024,0.477-0.12,0.649-0.315C45.241,96.883,46.188,94.865,46.558,92.65z M43.999,88.922l1.292,2.428l-1.029,0.548
		L42.97,89.47L43.999,88.922z M42.37,97.095c-0.23-0.328-0.548-0.57-0.908-0.711c0.557-0.449,0.919-1.128,0.919-1.898
		c0-0.362-0.084-0.704-0.226-1.014c0.344-0.747,0.76-1.466,1.172-2.147c0.015-0.024,0.013-0.047,0.025-0.071l0.585,1.1
		c0.065,0.122,0.217,0.168,0.338,0.104l0.323-0.172c-0.003,0.014-0.012,0.023-0.014,0.037C44.277,94.164,43.529,95.768,42.37,97.095
		z"/>
	<polygon points="71.815,9.134 71.036,8.955 70.257,12.873 70.809,13 	"/>
	<path d="M70.151,14.599c0.292,0.067,0.529-0.108,0.594-0.393c0.067-0.292-0.071-0.546-0.363-0.612
		c-0.275-0.063-0.526,0.101-0.594,0.393C69.724,14.271,69.868,14.534,70.151,14.599z"/>
	<path d="M72.918,14.125c0.084-0.172,0.036-0.351-0.137-0.436c-0.162-0.08-0.343-0.015-0.428,0.157
		c-0.083,0.167-0.032,0.354,0.135,0.436C72.66,14.367,72.835,14.292,72.918,14.125z"/>
	<polygon points="74.336,11.122 73.877,10.896 72.81,13.223 73.136,13.383 	"/>
</g>
</svg>
